<?xml version="1.0" encoding="UTF-8" standalone="no"?>
<!-- Created with Inkscape (http://www.inkscape.org/) -->

<svg
   xmlns:dc="http://purl.org/dc/elements/1.1/"
   xmlns:cc="http://creativecommons.org/ns#"
   xmlns:rdf="http://www.w3.org/1999/02/22-rdf-syntax-ns#"
   xmlns:svg="http://www.w3.org/2000/svg"
   xmlns="http://www.w3.org/2000/svg"
   xmlns:sodipodi="http://sodipodi.sourceforge.net/DTD/sodipodi-0.dtd"
   xmlns:inkscape="http://www.inkscape.org/namespaces/inkscape"
   width="240mm"
   height="120mm"
   viewBox="0 0 240 120"
   version="1.1"
   id="svg8"
   inkscape:version="0.92.3 (2405546, 2018-03-11)"
   sodipodi:docname="figure-1.svg">
  <defs
     id="defs2" />
  <sodipodi:namedview
     id="base"
     pagecolor="#ffffff"
     bordercolor="#666666"
     borderopacity="1.0"
     inkscape:pageopacity="0.0"
     inkscape:pageshadow="2"
     inkscape:zoom="0.99437388"
     inkscape:cx="284.27627"
     inkscape:cy="182.72055"
     inkscape:document-units="mm"
     inkscape:current-layer="layer1"
     showgrid="false"
     showborder="true"
     width="200mm"
     showguides="true"
     inkscape:guide-bbox="true"
     inkscape:window-width="1920"
     inkscape:window-height="1012"
     inkscape:window-x="0"
     inkscape:window-y="0"
     inkscape:window-maximized="1">
    <inkscape:grid
       type="xygrid"
       id="grid815"
       units="mm"
       spacingx="10"
       spacingy="10"
       empspacing="4"
       dotted="false" />
  </sodipodi:namedview>
  <metadata
     id="metadata5">
    <rdf:RDF>
      <cc:Work
         rdf:about="">
        <dc:format>image/svg+xml</dc:format>
        <dc:type
           rdf:resource="http://purl.org/dc/dcmitype/StillImage" />
        <dc:title />
      </cc:Work>
    </rdf:RDF>
  </metadata>
  <g
     inkscape:label="Layer 1"
     inkscape:groupmode="layer"
     id="layer1"
     transform="translate(0,-177)">
    <path
       style="fill:none;stroke:#000000;stroke-width:0.26458332px;stroke-linecap:butt;stroke-linejoin:miter;stroke-opacity:1"
       d="m 56.94119,212.65253 c -0.177387,0.35478 -0.354774,0.70955 -0.532159,1.06433 -0.08869,0 -0.203367,-0.0627 -0.266081,0 -0.06272,0.0627 0.03966,0.18675 0,0.26608 -0.05609,0.11219 -0.209986,0.15389 -0.266081,0.26607 -0.03966,0.0793 0.06272,0.20337 0,0.26609 -0.06272,0.0627 -0.203364,-0.0627 -0.266081,0 -0.06271,0.0627 0.06272,0.20336 0,0.26608 -0.06271,0.0627 -0.203364,-0.0627 -0.26608,0 -0.06271,0.0627 0.03967,0.18675 0,0.26608 -0.05609,0.11219 -0.209984,0.15389 -0.266079,0.26608 -0.04049,0.081 0,0.67841 0,0.79824 0,0.53216 0,1.06432 0,1.59648 0,0.88693 0,1.77387 0,2.6608 0,0.13914 -0.03498,0.99436 0,1.06433 0.05609,0.11218 0.209984,0.15388 0.266079,0.26608 0.03967,0.0793 -0.03966,0.18675 0,0.26607 0.0561,0.1122 0.209986,0.1539 0.26608,0.26609 0.03967,0.0793 -0.03966,0.18675 0,0.26608 0.05609,0.11218 0.209987,0.15389 0.266081,0.26608 0.03966,0.0793 -0.03966,0.18675 0,0.26608 0.05609,0.11219 0.209987,0.15389 0.266081,0.26608 0.03966,0.0793 -0.03967,0.18675 0,0.26608 0.05609,0.11219 0.209984,0.15389 0.266081,0.26608 0.07933,0.15866 -0.07933,0.3735 0,0.53216 0.05609,0.11219 0.177385,0.17738 0.266078,0.26608 0.08869,0.0887 0.177387,0.17738 0.266081,0.26608 0.140081,0.14008 0.656132,0.72718 0.798243,0.79824 0.783021,0.39151 -0.350319,-0.6164 0.532159,0.26608 0.209076,0.20908 1.245658,1.16092 1.330402,1.3304 0.183509,0.36702 -0.322239,0.238 0.26608,0.53216 0.07933,0.0397 0.186751,-0.0397 0.266081,0 0.112189,0.0561 0.15389,0.20999 0.266081,0.26608 0.07933,0.0397 0.186748,-0.0397 0.266078,0 0.112192,0.0561 0.153893,0.20999 0.266081,0.26608 0.07933,0.0397 0.186751,-0.0397 0.266081,0 0.112189,0.0561 0.15389,0.20999 0.266081,0.26608 0.15866,0.0793 0.363876,-0.0561 0.532159,0 0.188148,0.0627 0.344014,0.20337 0.532162,0.26608 0.08414,0.0281 0.181938,-0.028 0.266081,0 0.188145,0.0627 0.344014,0.20337 0.532159,0.26608 0.08414,0.0281 0.186751,-0.0397 0.266081,0 0.112188,0.0561 0.153892,0.20999 0.266081,0.26609 0.09886,0.0494 1.635561,0 1.86256,0 1.241708,0 2.483419,0 3.725127,0 2.483416,0 4.966833,0 7.450249,0 0.709546,0 1.419095,0 2.128641,0 0.13914,0 0.994358,-0.035 1.064321,0 0.112192,0.0561 0.153893,0.20998 0.266081,0.26608 0.07933,0.0397 0.186751,-0.0397 0.266081,0 0.112189,0.0561 0.15389,0.20998 0.266081,0.26607 0.07933,0.0397 0.186751,-0.0397 0.266081,0 0.112188,0.0561 0.153889,0.20999 0.266078,0.26609 0.07933,0.0397 0.186751,-0.0397 0.266081,0 0.112189,0.0561 0.153892,0.20998 0.266081,0.26608 0.07933,0.0397 0.186751,-0.0397 0.266081,0 0.112188,0.0561 0.153889,0.20998 0.266081,0.26608 0.07933,0.0397 0.186748,-0.0397 0.266078,0 0.112191,0.0561 0.153892,0.20998 0.266081,0.26608 0.212865,0.10643 0.585377,-0.10644 0.79824,0 0.224379,0.11219 0.307784,0.41997 0.532161,0.53216 0.07933,0.0397 0.186751,-0.0397 0.266081,0 0.588317,0.29416 0.08257,0.16514 0.266081,0.53216 0.05609,0.11219 0.177387,0.17739 0.266078,0.26608 0.207833,0.20783 0.645176,0.56864 0.798243,0.79824 0.110011,0.16502 0.15607,0.36714 0.266081,0.53216 0.139152,0.20873 0.354772,0.35477 0.532159,0.53216 0.266081,0.26608 0.532162,0.53216 0.798243,0.79824 0.08869,0.0887 0.196503,0.16172 0.266078,0.26608 0.110011,0.16502 0.156069,0.36715 0.266081,0.53216 0.139155,0.20873 0.393006,0.32343 0.532161,0.53216 0.110011,0.16502 0.15607,0.36715 0.266081,0.53216 0.139153,0.20873 0.452829,0.29418 0.532159,0.53217 0.05609,0.16828 -0.05609,0.36387 0,0.53215 0.05175,0.15524 0.904365,0.82439 1.064321,1.06433 0.110011,0.16501 0.147087,0.3735 0.266081,0.53216 0.372512,0.49668 0.95789,0.83372 1.330402,1.3304 0.23799,0.31732 0.294171,0.747 0.532161,1.06432 1.150874,1.15087 0.0417,-0.0705 0.79824,1.06432 0.407522,0.61129 0.151985,-0.1141 0.798243,0.53216 0.140235,0.14024 0.125841,0.39193 0.266078,0.53216 0.646258,0.64626 0.390718,-0.0791 0.798243,0.53216 0.110011,0.16502 0.125844,0.39193 0.266078,0.53217 0.646258,0.64625 0.390721,-0.0791 0.798243,0.53215 0.110011,0.16502 0.125844,0.39193 0.266081,0.53217 0.140234,0.14023 0.367143,0.15607 0.532159,0.26608 0.208732,0.13915 0.323432,0.393 0.532161,0.53216 0.165016,0.11001 0.367144,0.15607 0.53216,0.26608 0.104367,0.0696 0.161716,0.1965 0.26608,0.26608 0.165016,0.11001 0.367147,0.15607 0.532162,0.26608 0.20873,0.13915 0.323429,0.39301 0.532159,0.53216 1.344188,0.89612 0.0062,0.002 0.798238,0.26608 0.18815,0.0627 0.33976,0.21798 0.53216,0.26608 0.17209,0.043 0.36008,-0.043 0.53217,0 0.1924,0.0481 0.33975,0.21798 0.53216,0.26608 0.21637,0.0541 1.31793,0 1.59648,0 1.15301,0 2.30603,0 3.45904,0 2.48342,0 4.96684,0 7.45025,0 1.24171,0 2.48342,0 3.72513,0 0.26608,0 0.53216,0 0.79824,0 0.35477,0 0.71311,-0.0502 1.06432,0 0.27765,0.0397 0.52158,0.21997 0.79824,0.26608 0.43743,0.0729 0.88693,0 1.3304,0 0.70955,0 1.4191,0 2.12864,0 0.0461,0 1.80731,0.0276 1.86257,0 0.11219,-0.0561 0.15389,-0.20999 0.26608,-0.26608 0.0793,-0.0397 0.18194,0.0281 0.26608,0 0.18814,-0.0627 0.34401,-0.20337 0.53216,-0.26608 0.0841,-0.0281 0.17738,0 0.26608,0 0.26608,0 0.53578,0.0437 0.79824,0 0.27666,-0.0461 0.52158,-0.21997 0.79824,-0.26608 3.02639,-0.5044 -0.95269,0.49495 1.3304,-0.26608 0.25496,-0.085 1.0839,0.0822 1.3304,0 0.119,-0.0397 0.15389,-0.20999 0.26608,-0.26608 0.0793,-0.0397 0.17739,0 0.26608,0 0.17739,0 0.36388,0.0561 0.53217,0 0.11899,-0.0397 0.15388,-0.20999 0.26608,-0.26608 0.0793,-0.0397 0.18674,0.0397 0.26607,0 0.1122,-0.0561 0.14709,-0.22642 0.26609,-0.26608 1.15202,-0.38401 -0.0978,0.50866 1.06432,-0.26608 0.48685,-0.32458 0.0265,-0.33924 0.79824,-0.53216 0.17209,-0.043 0.3735,0.0793 0.53216,0 0.0793,-0.0397 -0.0793,-0.22642 0,-0.26608 0.53216,-0.26608 0.39912,0.13304 0.79824,0 0.37629,-0.12544 0.68803,-0.40673 1.06432,-0.53216 0.0841,-0.028 0.18675,0.0397 0.26608,0 0.11219,-0.0561 0.15389,-0.20999 0.26608,-0.26609 0.0793,-0.0397 0.18675,0.0397 0.26608,0 0.22438,-0.11218 0.30778,-0.41997 0.53216,-0.53215 0.65535,-0.32768 -0.2402,0.77235 0.79824,-0.26609 0.55053,-0.55052 -0.84128,0.0215 0.26608,-0.53216 0.0793,-0.0397 0.18675,0.0397 0.26608,0 0.11219,-0.0561 0.15389,-0.20998 0.26609,-0.26608 0.0793,-0.0397 0.18675,0.0397 0.26607,0 0.24455,-0.12227 0.86243,-0.99702 1.06433,-1.06432 0.16828,-0.0561 0.36387,0.0561 0.53216,0 0.83052,-0.27684 -0.0887,-0.17739 0.26608,-0.53216 0.017,-0.017 1.01476,-0.49912 1.06432,-0.53216 0.20873,-0.13915 0.35477,-0.35477 0.53216,-0.53216 0.44347,-0.44347 0.88693,-0.88694 1.3304,-1.3304 0.17739,-0.17739 0.32343,-0.39301 0.53216,-0.53216 0.16502,-0.11001 0.36715,-0.15607 0.53216,-0.26608 0.10437,-0.0696 0.17739,-0.17739 0.26608,-0.26608 0.17739,-0.17739 0.39301,-0.32343 0.53216,-0.53216 0.0492,-0.0738 -0.0397,-0.18675 0,-0.26608 0.0561,-0.11219 0.19651,-0.16172 0.26608,-0.26609 0.50407,0.0303 0.17739,-0.62085 0.26608,-0.79824 0.60888,-1.21774 -0.11028,1.12909 0.53217,-0.79824 0.028,-0.0841 0,-0.17738 0,-0.26608 0,-0.17738 0,-0.35477 0,-0.53216 0,-0.62085 0,-1.24171 0,-1.86256 0,-0.70955 0,-1.41909 0,-2.12864 0,-0.22528 0.0477,-0.92128 0,-1.06432 -0.0397,-0.119 -0.20999,-0.1539 -0.26609,-0.26608 -0.0397,-0.0793 0.028,-0.18194 0,-0.26609 -0.0627,-0.18814 -0.21797,-0.33975 -0.26608,-0.53215 -0.0324,-0.12964 0.0703,-0.92363 0,-1.06433 -0.0561,-0.11219 -0.22641,-0.14708 -0.26608,-0.26608 -0.0561,-0.16828 0.0561,-0.36387 0,-0.53216 -0.0397,-0.11899 -0.20998,-0.15389 -0.26608,-0.26608 -0.0397,-0.0793 0.0397,-0.18675 0,-0.26608 -0.0561,-0.11219 -0.22641,-0.14708 -0.26608,-0.26608 -0.0561,-0.16828 0.0561,-0.36387 0,-0.53216 -0.0793,-0.23799 -0.41997,-0.30778 -0.53216,-0.53216 -0.0397,-0.0793 0.0397,-0.18675 0,-0.26608 -0.0561,-0.11219 -0.1965,-0.16172 -0.26608,-0.26608 -0.11001,-0.16502 -0.17739,-0.35478 -0.26608,-0.53216 -0.0887,-0.17739 -0.17738,-0.35477 -0.26608,-0.53216 0,-0.0887 0.0281,-0.18194 0,-0.26608 -0.64244,-1.92733 0.0767,0.4195 -0.53216,-0.79824 -0.0397,-0.0793 0.0397,-0.18675 0,-0.26608 -0.0561,-0.11219 -0.20999,-0.1539 -0.26608,-0.26608 -0.0397,-0.0793 0,-0.17739 0,-0.26608 -0.0887,-0.17739 -0.15607,-0.36715 -0.26608,-0.53216 -0.0696,-0.10437 -0.1965,-0.16172 -0.26608,-0.26608 -0.11001,-0.16502 -0.15607,-0.36715 -0.26608,-0.53217 -0.0696,-0.10436 -0.20999,-0.15389 -0.26608,-0.26608 -0.0397,-0.0793 0.0397,-0.18675 0,-0.26608 -0.0561,-0.11219 -0.1965,-0.16171 -0.26608,-0.26608 -0.11001,-0.16501 -0.16404,-0.36209 -0.26608,-0.53216 -0.16453,-0.27422 -0.34029,-0.54241 -0.53216,-0.79824 -0.0753,-0.10034 -0.22642,-0.14708 -0.26608,-0.26608 -0.0561,-0.16828 0.043,-0.36007 0,-0.53216 -0.0774,-0.30953 -0.69094,-1.18733 -0.79824,-1.3304 -0.0753,-0.10035 -0.19651,-0.16172 -0.26608,-0.26608 -0.19511,-0.29266 -0.61487,-1.41311 -0.79825,-1.59648 -0.0627,-0.0627 -0.18674,0.0397 -0.26607,0 -0.1122,-0.0561 -0.17739,-0.17739 -0.26609,-0.26608 -0.17738,-0.17739 -0.35477,-0.35478 -0.53216,-0.53216 -0.17738,-0.17739 -0.393,-0.32344 -0.53216,-0.53217 -0.11001,-0.16501 -0.15607,-0.36714 -0.26608,-0.53216 -0.0752,-0.11278 -0.68815,-0.74319 -0.79824,-0.79824 -0.0793,-0.0397 -0.17738,0 -0.26608,0 -0.17739,-0.0887 -0.36714,-0.15607 -0.53216,-0.26608 -0.22426,-0.1495 -0.90174,-1.01013 -1.06432,-1.06432 -0.16828,-0.0561 -0.36388,0.0561 -0.53216,0 -0.119,-0.0397 -0.17739,-0.17739 -0.26608,-0.26608 -0.17739,-0.0887 -0.34401,-0.20336 -0.53216,-0.26608 -0.16829,-0.0561 -0.3735,0.0793 -0.53216,0 -0.11219,-0.0561 -0.15389,-0.20998 -0.26608,-0.26608 -0.0793,-0.0397 -0.18194,0.0281 -0.26608,0 -0.18815,-0.0627 -0.34402,-0.20337 -0.53216,-0.26608 -0.0841,-0.0281 -0.18004,0.0215 -0.26609,0 -0.27209,-0.068 -0.52614,-0.19806 -0.79824,-0.26608 -0.17209,-0.043 -0.36387,0.0561 -0.53216,0 -0.18814,-0.0627 -0.33975,-0.21798 -0.53216,-0.26608 -0.17209,-0.043 -0.36387,0.0561 -0.53216,0 -0.11899,-0.0397 -0.14708,-0.22642 -0.26608,-0.26608 -0.79824,-0.26608 -0.26608,0.13304 -0.79824,0 -2.68837,-0.67209 0.19216,0.0961 -1.06432,-0.53216 -0.0793,-0.0397 -0.17739,0 -0.26608,0 -0.17739,0 -0.36388,0.0561 -0.53216,0 -0.119,-0.0397 -0.14709,-0.22642 -0.26608,-0.26608 -0.2465,-0.0822 -1.07544,0.085 -1.3304,0 -0.3763,-0.12543 -0.68803,-0.40673 -1.06432,-0.53216 -0.25243,-0.0841 -0.54011,0.0645 -0.79825,0 -0.1924,-0.0481 -0.34401,-0.20337 -0.53216,-0.26608 -0.16828,-0.0561 -0.35477,0 -0.53216,0 -0.62085,0 -1.2417,0 -1.86256,0 -0.17738,0 -0.35477,0 -0.53216,0 -0.17739,0 -0.36007,0.043 -0.53216,0 -0.38481,-0.0962 -0.68803,-0.40673 -1.06432,-0.53216 -0.0841,-0.028 -0.17739,0 -0.26608,0 -0.44347,0 -0.88694,0 -1.3304,0 -0.35478,0 -0.70955,0 -1.06433,0 -0.17738,0 -0.36006,0.043 -0.53215,0 -0.2721,-0.068 -0.52615,-0.19806 -0.79825,-0.26608 -0.3339,-0.0835 -0.73041,0.0835 -1.06432,0 -0.1924,-0.0481 -0.33975,-0.21798 -0.53216,-0.26608 -0.17209,-0.043 -0.36388,0.0561 -0.53216,0 -0.119,-0.0397 -0.15389,-0.20999 -0.26608,-0.26608 -0.0793,-0.0397 -0.17739,0 -0.26608,0 -0.17739,0 -0.36007,0.043 -0.53216,0 -0.1924,-0.0481 -0.34401,-0.20337 -0.53216,-0.26608 -0.0841,-0.0281 -0.17739,0 -0.26608,0 -0.22282,0 -1.12806,0.0506 -1.3304,0 -1.22298,-0.30575 -0.0604,-0.26609 -0.79824,-0.26609 -0.17739,0 -0.35478,0 -0.53217,0 -0.17738,0 -0.36387,0.0561 -0.53215,0 -0.119,-0.0397 -0.14709,-0.22641 -0.26609,-0.26608 -0.16828,-0.0561 -0.36387,0.0561 -0.53216,0 -0.11899,-0.0397 -0.14708,-0.22641 -0.26608,-0.26607 -0.16828,-0.0561 -0.36007,0.043 -0.53216,0 -0.1924,-0.0481 -0.33975,-0.21798 -0.53216,-0.26609 -0.17209,-0.043 -0.36007,0.043 -0.53216,0 -0.1924,-0.0481 -0.33976,-0.21797 -0.53216,-0.26608 -0.34418,-0.086 -0.72014,0.0861 -1.06432,0 -0.1924,-0.0481 -0.34401,-0.20336 -0.53216,-0.26608 -0.0841,-0.028 -0.17739,0 -0.26608,0 -0.26608,0 -0.54011,0.0645 -0.79824,0 -0.12169,-0.0304 -0.14709,-0.22641 -0.26608,-0.26608 -0.26968,-0.0899 -1.25733,0.0678 -1.59648,0 -0.27503,-0.055 -0.52615,-0.19805 -0.798247,-0.26608 -0.08604,-0.0215 -0.181938,0.0281 -0.266081,0 -0.188145,-0.0627 -0.339756,-0.21798 -0.532159,-0.26608 -0.41738,-0.10434 -0.913021,0.10435 -1.330402,0 -0.121687,-0.0304 -0.147087,-0.22641 -0.26608,-0.26608 -0.336569,-0.11219 -0.716437,0.0696 -1.064321,0 -0.275027,-0.055 -0.526143,-0.19805 -0.798243,-0.26608 -0.17209,-0.043 -0.363876,0.0561 -0.532159,0 -0.188148,-0.0627 -0.344014,-0.20336 -0.532162,-0.26608 -0.08414,-0.0281 -0.181938,0.028 -0.266078,0 -0.188148,-0.0627 -0.344014,-0.20336 -0.532162,-0.26608 -0.08414,-0.028 -0.181938,0.0281 -0.266081,0 -0.188147,-0.0627 -0.354774,-0.17739 -0.532159,-0.26608 -0.177387,-0.0887 -0.367146,-0.15607 -0.532161,-0.26608 -0.486858,-0.32457 -0.02655,-0.33924 -0.79824,-0.53216 -0.172093,-0.043 -0.363879,0.0561 -0.532162,0 -0.23799,-0.0793 -0.323429,-0.39301 -0.532162,-0.53216 -0.330031,-0.22002 -0.734287,-0.31214 -1.064321,-0.53216 -0.104365,-0.0696 -0.147084,-0.22642 -0.266081,-0.26608 -0.168282,-0.0561 -0.373499,0.0793 -0.532159,0 -0.532161,-0.26608 -0.399121,-0.53216 -0.798242,-0.79824 -0.165016,-0.11001 -0.367144,-0.15607 -0.532159,-0.26608 -0.104365,-0.0696 -0.161716,-0.19651 -0.266081,-0.26608 -0.165016,-0.11001 -0.391925,-0.12585 -0.532162,-0.26608 -0.140234,-0.14024 -0.125844,-0.39193 -0.266078,-0.53216 -0.324083,-0.32409 -0.594482,-0.12464 -0.798243,-0.53217 -0.03966,-0.0793 0.06272,-0.20336 0,-0.26608 -0.140237,-0.14023 -0.367144,-0.15607 -0.532159,-0.26608 -0.307017,-0.20467 -0.491225,-0.59356 -0.798243,-0.79824 -0.0738,-0.0492 -0.18675,0.0397 -0.26608,0 -0.112189,-0.0561 -0.161714,-0.1965 -0.266079,-0.26608 -0.165018,-0.11001 -0.391924,-0.12584 -0.532161,-0.26608 -0.140237,-0.14023 -0.125844,-0.39192 -0.266081,-0.53216 -0.140237,-0.14023 -0.354772,-0.17739 -0.532159,-0.26608 -0.177388,-0.0887 -0.344014,-0.20336 -0.532162,-0.26608 -0.08414,-0.0281 -0.186751,0.0397 -0.266081,0 -0.112189,-0.0561 -0.161713,-0.1965 -0.266078,-0.26608 -0.165018,-0.11001 -0.367147,-0.15607 -0.532162,-0.26608 -0.104365,-0.0696 -0.161716,-0.1965 -0.266081,-0.26608 -0.165015,-0.11001 -0.367144,-0.15607 -0.532159,-0.26608 -0.104367,-0.0696 -0.153892,-0.20999 -0.266081,-0.26608 -0.07933,-0.0397 -0.186751,0.0397 -0.266081,0 -0.112188,-0.0561 -0.161716,-0.1965 -0.266081,-0.26608 -0.33003,-0.22002 -0.734287,-0.31214 -1.06432,-0.53216 -0.104365,-0.0696 -0.153893,-0.20999 -0.266081,-0.26608 -0.07933,-0.0397 -0.181938,0.0281 -0.266081,0 -0.188145,-0.0627 -0.344011,-0.20337 -0.532159,-0.26608 -0.08414,-0.0281 -0.181938,0.028 -0.266081,0 -0.188148,-0.0627 -0.344014,-0.20337 -0.532162,-0.26608 -0.08414,-0.028 -0.177384,0 -0.266078,0 -0.506992,0 -0.84714,0.0561 -1.330402,-0.26608 -0.0738,-0.0492 0.07933,-0.22642 0,-0.26608 -0.15866,-0.0793 -0.360071,0.043 -0.532161,0 -0.192403,-0.0481 -0.344014,-0.20337 -0.532162,-0.26608 -0.168283,-0.0561 -0.363876,0.0561 -0.532159,0 -0.188148,-0.0627 -0.339757,-0.21798 -0.532162,-0.26608 -0.17209,-0.043 -0.354772,0 -0.532159,0 -0.532162,0 -1.064321,0 -1.596483,0 -1.419095,0 -2.83819,0 -4.257286,0 -1.039429,0 -0.02809,-0.0793 -1.064321,0.26608 -0.252425,0.0841 -0.540104,-0.0645 -0.79824,0 -0.481589,-0.16038 -0.494863,0.43103 -0.798242,0.53216 -0.168283,0.0561 -0.360069,-0.043 -0.532159,0 -0.48159,-0.16038 -0.494864,0.43103 -0.798243,0.53216 -0.168283,0.0561 -0.363876,-0.0561 -0.532159,0 -0.118996,0.0397 -0.161716,0.1965 -0.266081,0.26608 -0.330033,0.22002 -0.73429,0.31214 -1.064321,0.53216 -0.104365,0.0696 -0.153892,0.20998 -0.266081,0.26608 -0.07933,0.0397 -0.18675,-0.0397 -0.26608,0 -0.224378,0.11219 -0.307782,0.41997 -0.53216,0.53216 -0.367022,0.18351 -0.238003,-0.32224 -0.532161,0.26608 -0.04811,0.0962 0,1.14533 0,1.3304 0,0.0887 0.06272,0.20337 0,0.26608 -0.06272,0.0627 -0.203364,-0.0627 -0.266081,0 -0.06271,0.0627 0,0.17739 0,0.26608 0,0.0887 0,0.17739 0,0.26608 0,0.70955 0,1.4191 0,2.12865 0,1.59648 0,3.19296 0,4.78944 0,0.88694 0,1.77387 0,2.6608 0,0.0887 0,0.17739 0,0.26608 0,0.0887 0.06272,0.20337 0,0.26609 -0.06271,0.0627 -0.203364,-0.0627 -0.266081,0 -0.125431,0.12543 0.07933,0.3735 0,0.53216 -0.05609,0.11219 -0.209984,0.15389 -0.266078,0.26608 -0.106434,0.21286 0.106431,0.58537 0,0.79824 -0.0561,0.11219 -0.209987,0.15389 -0.266081,0.26608 -0.03967,0.0793 0.03966,0.18675 0,0.26608 -0.05609,0.11219 -0.209987,0.15389 -0.266081,0.26608 -0.03966,0.0793 0.06272,0.20336 0,0.26608 -0.06272,0.0627 -0.203364,-0.0627 -0.266081,0 -0.125431,0.12543 0.125431,0.40673 0,0.53216 -0.06271,0.0627 -0.203364,-0.0627 -0.266081,0 -0.125431,0.12543 0.07933,0.3735 0,0.53216 -0.05609,0.11219 -0.209984,0.15389 -0.266078,0.26608 -0.04811,0.0962 0,1.14533 0,1.3304 0,0.0887 -0.06272,0.20337 0,0.26608 0.06271,0.0627 0.203364,-0.0627 0.266078,0 0.06272,0.0627 -0.01738,0.17911 0,0.26608 0.07172,0.35859 0.177387,0.70955 0.266081,1.06432 z"
       id="path8"
       inkscape:connector-curvature="0" />
    <path
       style="fill:none;stroke:#000000;stroke-width:0.26458332px;stroke-linecap:butt;stroke-linejoin:miter;stroke-opacity:1"
       d="m 76.631135,209.19349 c -0.08869,0.35477 -0.194363,0.70573 -0.266081,1.06432 -0.04789,0.23947 0,0.55345 0,0.79824 0,0.62086 0,1.24171 0,1.86256 0,0.14215 -0.03808,1.25425 0,1.3304 0.05609,0.1122 0.209987,0.1539 0.266081,0.26609 0.07933,0.15866 -0.07933,0.3735 0,0.53216 0.05609,0.11219 0.209986,0.15389 0.266081,0.26608 0.03966,0.0793 0,0.17738 0,0.26608 0,0.17738 -0.05609,0.36388 0,0.53216 0.03966,0.11899 0.209984,0.15389 0.266081,0.26608 0.03966,0.0793 -0.02805,0.18194 0,0.26608 0.06271,0.18815 0.203364,0.34401 0.266078,0.53216 0.0561,0.16828 -0.07933,0.3735 0,0.53216 0.0561,0.11219 0.209986,0.15389 0.266081,0.26608 0.03967,0.0793 -0.03966,0.18675 0,0.26608 0.05609,0.11219 0.209986,0.15389 0.266081,0.26608 0.07933,0.15866 -0.07933,0.3735 0,0.53216 0.112188,0.22438 0.41997,0.30778 0.532161,0.53216 0.03966,0.0793 -0.03967,0.18675 0,0.26608 0.05609,0.11219 0.209984,0.15389 0.266079,0.26608 0.07933,0.15866 -0.125431,0.40673 0,0.53216 0.06272,0.0627 0.203366,-0.0627 0.26608,0 0.125432,0.12544 -0.07933,0.3735 0,0.53216 0.05609,0.11219 0.209987,0.1539 0.266081,0.26609 0.03966,0.0793 -0.03966,0.18675 0,0.26608 0.553681,1.10736 -0.01836,-0.28445 0.532162,0.26607 0.06271,0.0627 -0.03967,0.18676 0,0.26609 0.55368,1.10736 -0.01836,-0.28445 0.532159,0.26608 0.06272,0.0627 -0.03966,0.18675 0,0.26608 0.294159,0.58831 0.165143,0.0826 0.532162,0.26608 0.112189,0.0561 0.15389,0.20998 0.266081,0.26608 0.07933,0.0397 0.186748,-0.0397 0.266078,0 0.22438,0.11219 0.307782,0.41997 0.532162,0.53216 0.06996,0.035 0.925182,0 1.064321,0 0.79824,0 1.596482,0 2.394722,0 1.862564,0 3.725124,0 5.587688,0 0.06453,0 0.789683,0.009 0.79824,0 0.06272,-0.0627 -0.06271,-0.20337 0,-0.26608 0.07281,-0.0728 0.919977,0.0722 1.064323,0 0.112189,-0.0561 0.15389,-0.20999 0.266079,-0.26608 0.15866,-0.0793 0.373501,0.0793 0.532161,0 0.112189,-0.0561 0.147085,-0.22642 0.266081,-0.26608 0.143045,-0.0477 0.839044,0 1.064321,0 0.79824,0 1.596483,0 2.394723,0 0.443468,0 0.886933,0 1.330401,0 0.266081,0 0.545815,-0.0842 0.79824,0 0.118997,0.0397 0.153893,0.20998 0.266081,0.26608 0.15866,0.0793 0.363877,-0.0561 0.532157,0 0.18815,0.0627 0.34402,0.20336 0.53216,0.26608 0.0841,0.0281 0.18675,-0.0397 0.26608,0 0.11219,0.0561 0.1539,0.20998 0.26609,0.26608 0.15866,0.0793 0.3735,-0.0793 0.53216,0 0.11219,0.0561 0.15389,0.20998 0.26608,0.26608 0.0793,0.0397 0.18193,-0.028 0.26608,0 0.18814,0.0627 0.34401,0.20336 0.53216,0.26608 0.16828,0.0561 0.3735,-0.0793 0.53216,0 0.11219,0.0561 0.15389,0.20998 0.26608,0.26608 0.15866,0.0793 0.3735,-0.0793 0.53216,0 0.11219,0.0561 0.17739,0.17738 0.26608,0.26608 0.0887,0.0887 0.20998,0.15389 0.26608,0.26608 0.0397,0.0793 -0.0627,0.20336 0,0.26608 0.0627,0.0627 0.18675,-0.0397 0.26608,0 0.22438,0.11219 0.32343,0.39301 0.53216,0.53216 0.16502,0.11001 0.3735,0.14709 0.53216,0.26608 0.20069,0.15052 0.32343,0.39301 0.53216,0.53216 0.0738,0.0492 0.20337,-0.0627 0.26608,0 0.0627,0.0627 -0.0627,0.20337 0,0.26608 0.0627,0.0627 0.18675,-0.0397 0.26608,0 0.0457,0.0228 0.78723,0.76519 0.79824,0.79824 0.0561,0.16829 -0.0561,0.36388 0,0.53216 0.0397,0.119 0.17739,0.17739 0.26609,0.26608 0.0887,0.0887 0.17738,0.17739 0.26607,0.26608 0.0887,0.0887 0.17739,0.17739 0.26608,0.26608 0.0887,0.0887 0.20999,0.15389 0.26609,0.26609 0.0397,0.0793 -0.0397,0.18675 0,0.26608 0.13091,0.26183 0.9334,0.80249 1.06432,1.06432 0.14191,0.28382 -0.26341,0.35566 0.26608,0.53216 0.16828,0.0561 0.3735,-0.0793 0.53216,0 0.0793,0.0397 -0.0627,0.20336 0,0.26608 0.12543,0.12543 0.3735,-0.0793 0.53216,0 0.11219,0.0561 0.16171,0.1965 0.26608,0.26608 0.13399,0.58622 0.54738,0.14065 0.79824,0.26608 0.11219,0.0561 0.15389,0.20998 0.26608,0.26608 0.0793,0.0397 0.17739,0 0.26608,0 0.17739,0 0.36388,-0.0561 0.53216,0 0.119,0.0397 0.15389,0.20998 0.26608,0.26608 0.0709,0.0354 1.47611,0 1.59648,0 1.15302,0 2.30603,0 3.45905,0 0.62085,0 1.24171,0 1.86256,0 0.17739,0 0.35477,0 0.53216,0 0.0887,0 0.18675,0.0397 0.26608,0 0.11219,-0.0561 0.15389,-0.20999 0.26608,-0.26608 0.0793,-0.0397 0.18194,0.0281 0.26608,0 0.18815,-0.0627 0.33976,-0.21798 0.53216,-0.26608 1.21128,0 0.0152,0.12543 0.79824,-0.26608 0.15866,-0.0793 0.40673,0.12543 0.53216,0 0.0627,-0.0627 -0.0627,-0.20337 0,-0.26608 0.0728,-0.0728 0.91998,0.0722 1.06433,0 0.22437,-0.11219 0.30778,-0.41997 0.53215,-0.53216 0.15866,-0.0793 0.37351,0.0793 0.53217,0 0.11219,-0.0561 0.15389,-0.20999 0.26608,-0.26608 0.0793,-0.0397 0.20336,0.0627 0.26608,0 0.0627,-0.0627 -0.0627,-0.20337 0,-0.26608 0.0627,-0.0627 0.20336,0.0627 0.26608,0 0.0627,-0.0627 -0.0627,-0.20337 0,-0.26608 0.0627,-0.0627 0.18675,0.0397 0.26608,0 0.11219,-0.0561 0.17738,-0.17739 0.26608,-0.26609 0.0887,-0.0887 0.20998,-0.15389 0.26608,-0.26607 0.0397,-0.0793 -0.0397,-0.18675 0,-0.26608 0.60564,-0.60564 0.0703,0.0551 0.26608,-0.53217 0.64244,-1.92733 -0.0767,0.41951 0.53216,-0.79824 0.0405,-0.081 0,-0.67841 0,-0.79824 0,-0.70955 0,-1.41909 0,-2.12864 0,-0.2498 0.0508,-1.17794 0,-1.3304 -0.0793,-0.23799 -0.41997,-0.30778 -0.53216,-0.53216 -0.0397,-0.0793 0,-0.17739 0,-0.26608 0,-0.39604 0.0397,-0.33963 -0.26608,-0.79824 -0.16148,-0.24222 -0.68032,-0.56241 -0.79824,-0.79824 -0.0397,-0.0793 0.0397,-0.18676 0,-0.26609 -0.0561,-0.11218 -0.20999,-0.15389 -0.26608,-0.26608 -0.0397,-0.0793 0.0627,-0.20336 0,-0.26608 -0.0627,-0.0627 -0.20337,0.0627 -0.26608,0 -0.0627,-0.0627 0.028,-0.18194 0,-0.26608 -0.0627,-0.18814 -0.15607,-0.36714 -0.26608,-0.53216 -0.16148,-0.24221 -0.68033,-0.5624 -0.79824,-0.79824 -0.39152,-0.78302 0.61639,0.35032 -0.26608,-0.53216 -0.88248,-0.88248 0.25086,0.12543 -0.53217,-0.26608 -1.10736,-0.55368 0.28445,0.0184 -0.26608,-0.53216 -0.0627,-0.0627 -0.18675,0.0397 -0.26608,0 -0.22438,-0.11219 -0.30778,-0.41997 -0.53216,-0.53216 -0.0793,-0.0397 -0.18675,0.0397 -0.26608,0 -0.11219,-0.0561 -0.15389,-0.20999 -0.26608,-0.26608 -0.0793,-0.0397 -0.18675,0.0397 -0.26608,0 -0.31929,-0.15965 -0.47894,-0.63859 -0.79824,-0.79824 -0.0793,-0.0397 -0.18675,0.0397 -0.26608,0 -0.11219,-0.0561 -0.17738,-0.17739 -0.26608,-0.26608 -0.27048,-0.27048 -0.36867,-0.42477 -0.79824,-0.53216 -0.23755,-0.0594 -1.02241,0 -1.3304,0 -0.88694,0 -1.77387,0 -2.66081,0 -3.28165,0 -6.56331,0 -9.84497,0 -1.3304,0 -2.6608,0 -3.9912,0 -0.25736,0 -1.51757,0.0395 -1.59649,0 -0.11218,-0.0561 -0.15388,-0.20999 -0.26608,-0.26608 -0.0793,-0.0397 -0.18193,0.028 -0.26607,0 -0.18815,-0.0627 -0.34402,-0.20337 -0.53217,-0.26608 -0.08414,-0.0281 -0.186747,0.0397 -0.266077,0 -0.112188,-0.0561 -0.153889,-0.20999 -0.266081,-0.26608 -0.158657,-0.0793 -0.363876,0.0561 -0.532159,0 -0.188148,-0.0627 -0.339757,-0.21798 -0.532162,-0.26609 -0.17209,-0.043 -0.354771,0 -0.532159,0 -0.08869,0 -0.186751,0.0397 -0.266081,0 -0.112188,-0.0561 -0.147087,-0.22641 -0.26608,-0.26607 -0.121701,-0.0406 -0.945923,0.0592 -1.064321,0 -0.112189,-0.0561 -0.153893,-0.20999 -0.266081,-0.26608 -0.07933,-0.0397 -0.203364,0.0627 -0.266081,0 -0.06271,-0.0627 0.06272,-0.20337 0,-0.26609 -0.06271,-0.0627 -0.186751,0.0397 -0.266081,0 -0.112188,-0.0561 -0.153889,-0.20998 -0.266078,-0.26608 -0.07933,-0.0397 -0.186751,0.0397 -0.266081,0 -0.112189,-0.0561 -0.153892,-0.20998 -0.266081,-0.26608 -0.07933,-0.0397 -0.186751,0.0397 -0.266081,0 -0.112188,-0.0561 -0.153889,-0.20998 -0.266078,-0.26608 -0.367022,-0.1835 -0.238003,0.32224 -0.532162,-0.26608 -0.03967,-0.0793 0.06272,-0.20336 0,-0.26608 -0.06272,-0.0627 -0.186751,0.0397 -0.266081,0 -0.112188,-0.0561 -0.177387,-0.17738 -0.26608,-0.26608 -0.08869,-0.0887 -0.209984,-0.15389 -0.266079,-0.26608 -0.03967,-0.0793 0.06271,-0.20336 0,-0.26608 -0.06272,-0.0627 -0.186751,0.0397 -0.266081,0 -0.169486,-0.0847 -1.121325,-1.12132 -1.330401,-1.3304 -0.156493,-0.15649 -1.002713,-0.94111 -1.064321,-1.06432 -0.03967,-0.0793 0.06271,-0.20337 0,-0.26608 -0.06272,-0.0627 -0.186751,0.0397 -0.266081,0 -0.112189,-0.0561 -0.177387,-0.17739 -0.266081,-0.26608 -0.08869,-0.0887 -0.209986,-0.15389 -0.266081,-0.26608 -0.183509,-0.36702 0.322239,-0.238 -0.266081,-0.53216 -0.07933,-0.0397 -0.177384,0 -0.266078,0 -0.177387,-0.0887 -0.367146,-0.15607 -0.532162,-0.26608 -0.208729,-0.13916 -0.307781,-0.41998 -0.532161,-0.53216 -0.160264,-0.0801 -1.363914,0.0775 -1.59648,0 -0.188148,-0.0627 -0.344014,-0.20337 -0.532162,-0.26608 -0.168283,-0.0561 -0.354774,0 -0.532162,0 -0.177384,0 -0.363876,-0.0561 -0.532159,0 -0.118996,0.0397 -0.147087,0.22641 -0.266081,0.26608 -0.168283,0.0561 -0.363876,-0.0561 -0.532161,0 -0.118994,0.0397 -0.147085,0.22641 -0.266079,0.26608 -0.168285,0.0561 -0.354774,0 -0.532161,0 -0.08869,0 -0.186751,-0.0397 -0.266081,0 -0.112189,0.0561 -0.15389,0.20998 -0.266078,0.26608 -0.08098,0.0405 -0.678411,0 -0.798243,0 -0.21232,0 -1.170768,-0.0532 -1.330402,0 -0.188148,0.0627 -0.344014,0.20336 -0.532159,0.26608 -0.08414,0.028 -0.186751,-0.0397 -0.266081,0 -0.112188,0.0561 -0.153892,0.20998 -0.266081,0.26608 -0.367019,0.18351 -0.238,-0.32224 -0.532161,0.26608 -0.02442,0.0488 0.01953,0.79824 0,0.79824 -0.08869,0 -0.08869,-0.26608 0,-0.26608 0.08869,0 0.06272,0.20336 0,0.26608 -0.0544,0.0544 -0.69274,-0.0528 -0.79824,0 -1.033886,0.51694 1.321488,0.26608 -1.330402,0.26608 z"
       id="path10"
       inkscape:connector-curvature="0" />
    <circle
       style="fill:#8686bf;fill-opacity:1;stroke-width:0.26458332"
       id="path12"
       cx="84.879631"
       cy="215.04726"
       r="1.0643213" />
    <ellipse
       style="fill:#8686bf;fill-opacity:1;stroke-width:0.26458332"
       id="path14"
       cx="112.9511"
       cy="221.43318"
       rx="1.1973615"
       ry="1.0643213" />
    <circle
       style="fill:#ff0000;fill-opacity:1;stroke-width:0.26458332"
       id="path18"
       cx="134.23752"
       cy="234.33807"
       r="1.1973615" />
    <text
       xml:space="preserve"
       style="font-style:normal;font-weight:normal;font-size:4.58611111px;line-height:1.25;font-family:sans-serif;letter-spacing:0px;word-spacing:0px;fill:#000000;fill-opacity:1;stroke:none;stroke-width:0.26458332;"
       x="83.017067"
       y="219.8367"
       id="text22"><tspan
         sodipodi:role="line"
         id="tspan20"
         x="83.017067"
         y="219.8367"
         style="stroke-width:0.26458332;font-size:4.58611111px;">u</tspan></text>
    <text
       xml:space="preserve"
       style="font-style:normal;font-weight:normal;font-size:4.93888889px;line-height:1.25;font-family:sans-serif;letter-spacing:0px;word-spacing:0px;fill:#000000;fill-opacity:1;stroke:none;stroke-width:0.26458332;"
       x="113.08414"
       y="225.42439"
       id="text26"><tspan
         sodipodi:role="line"
         id="tspan24"
         x="113.08414"
         y="225.42439"
         style="stroke-width:0.26458332;font-size:4.93888889px;">v</tspan></text>
    <text
       xml:space="preserve"
       style="font-style:normal;font-weight:normal;font-size:7.05555556px;line-height:1.25;font-family:sans-serif;letter-spacing:0px;word-spacing:0px;fill:#000000;fill-opacity:1;stroke:none;stroke-width:0.26458332;"
       x="97.917557"
       y="234.20503"
       id="text30"><tspan
         sodipodi:role="line"
         id="tspan28"
         x="97.917557"
         y="234.20503"
         style="stroke-width:0.26458332;font-size:7.05555556px;">U</tspan></text>
    <text
       xml:space="preserve"
       style="font-style:normal;font-weight:normal;font-size:4.93888855px;line-height:1.25;font-family:sans-serif;letter-spacing:0px;word-spacing:0px;fill:#ff0000;fill-opacity:1;stroke:none;stroke-width:0.26458332;"
       x="122.92912"
       y="238.46233"
       id="text34"><tspan
         sodipodi:role="line"
         id="tspan32"
         x="122.92912"
         y="238.46233"
         style="stroke-width:0.26458332;fill:#ff0000;">u+v</tspan></text>
    <text
       xml:space="preserve"
       style="font-style:normal;font-weight:normal;font-size:4.93888855px;line-height:1.25;font-family:sans-serif;letter-spacing:0px;word-spacing:0px;fill:#ff0000;fill-opacity:1;stroke:none;stroke-width:0.26458332;"
       x="132.77409"
       y="227.55302"
       id="text38"><tspan
         sodipodi:role="line"
         id="tspan36"
         x="132.77409"
         y="227.55302"
         style="stroke-width:0.26458332;fill:#ff0000;">(BAD)</tspan></text>
    <text
       xml:space="preserve"
       style="font-style:normal;font-weight:normal;font-size:7.05555556px;line-height:1.25;font-family:sans-serif;letter-spacing:0px;word-spacing:0px;fill:#000000;fill-opacity:1;stroke:none;stroke-width:0.26458332;"
       x="81.420578"
       y="244.05002"
       id="text42"><tspan
         sodipodi:role="line"
         id="tspan40"
         x="81.420578"
         y="244.05002"
         style="stroke-width:0.26458332;font-size:7.05555556px;">V</tspan></text>
  </g>
</svg>
