<?xml version="1.0" encoding="UTF-8" standalone="no"?>
<!-- Created with Inkscape (http://www.inkscape.org/) -->

<svg
   xmlns:dc="http://purl.org/dc/elements/1.1/"
   xmlns:cc="http://creativecommons.org/ns#"
   xmlns:rdf="http://www.w3.org/1999/02/22-rdf-syntax-ns#"
   xmlns:svg="http://www.w3.org/2000/svg"
   xmlns="http://www.w3.org/2000/svg"
   xmlns:sodipodi="http://sodipodi.sourceforge.net/DTD/sodipodi-0.dtd"
   xmlns:inkscape="http://www.inkscape.org/namespaces/inkscape"
   width="240mm"
   height="120mm"
   viewBox="0 0 240 120"
   version="1.1"
   id="svg8"
   inkscape:version="0.92.5 (2060ec1f9f, 2020-04-08)"
   sodipodi:docname="example-space-for-p_1-and-p_2.svg">
  <defs
     id="defs2">
    <inkscape:path-effect
       effect="bspline"
       id="path-effect850"
       is_visible="true"
       weight="33.333333"
       steps="2"
       helper_size="0"
       apply_no_weight="true"
       apply_with_weight="true"
       only_selected="false" />
    <inkscape:path-effect
       effect="simplify"
       id="path-effect848"
       is_visible="true"
       steps="1"
       threshold="0.010382"
       smooth_angles="360"
       helper_size="0"
       simplify_individual_paths="false"
       simplify_just_coalesce="false"
       simplifyindividualpaths="false"
       simplifyJustCoalesce="false" />
    <inkscape:path-effect
       effect="bspline"
       id="path-effect820"
       is_visible="true"
       weight="33.333333"
       steps="2"
       helper_size="0"
       apply_no_weight="true"
       apply_with_weight="true"
       only_selected="false" />
    <inkscape:path-effect
       effect="simplify"
       id="path-effect818"
       is_visible="true"
       steps="1"
       threshold="0.010382"
       smooth_angles="360"
       helper_size="0"
       simplify_individual_paths="false"
       simplify_just_coalesce="false"
       simplifyindividualpaths="false"
       simplifyJustCoalesce="false" />
    <inkscape:path-effect
       effect="simplify"
       id="path-effect818-3"
       is_visible="true"
       steps="1"
       threshold="0.010382"
       smooth_angles="360"
       helper_size="0"
       simplify_individual_paths="false"
       simplify_just_coalesce="false"
       simplifyindividualpaths="false"
       simplifyJustCoalesce="false" />
    <inkscape:path-effect
       effect="bspline"
       id="path-effect820-6"
       is_visible="true"
       weight="33.333333"
       steps="2"
       helper_size="0"
       apply_no_weight="true"
       apply_with_weight="true"
       only_selected="false" />
    <inkscape:path-effect
       effect="simplify"
       id="path-effect818-5"
       is_visible="true"
       steps="1"
       threshold="0.010382"
       smooth_angles="360"
       helper_size="0"
       simplify_individual_paths="false"
       simplify_just_coalesce="false"
       simplifyindividualpaths="false"
       simplifyJustCoalesce="false" />
    <inkscape:path-effect
       effect="bspline"
       id="path-effect820-3"
       is_visible="true"
       weight="33.333333"
       steps="2"
       helper_size="0"
       apply_no_weight="true"
       apply_with_weight="true"
       only_selected="false" />
    <inkscape:path-effect
       effect="simplify"
       id="path-effect818-6"
       is_visible="true"
       steps="1"
       threshold="0.010382"
       smooth_angles="360"
       helper_size="0"
       simplify_individual_paths="false"
       simplify_just_coalesce="false"
       simplifyindividualpaths="false"
       simplifyJustCoalesce="false" />
    <inkscape:path-effect
       effect="bspline"
       id="path-effect820-2"
       is_visible="true"
       weight="33.333333"
       steps="2"
       helper_size="0"
       apply_no_weight="true"
       apply_with_weight="true"
       only_selected="false" />
  </defs>
  <sodipodi:namedview
     id="base"
     pagecolor="#ffffff"
     bordercolor="#666666"
     borderopacity="1.0"
     inkscape:pageopacity="0.0"
     inkscape:pageshadow="2"
     inkscape:zoom="0.31723181"
     inkscape:cx="506.2419"
     inkscape:cy="165.99231"
     inkscape:document-units="mm"
     inkscape:current-layer="layer1"
     showgrid="false"
     showborder="true"
     width="200mm"
     showguides="true"
     inkscape:guide-bbox="true"
     inkscape:window-width="636"
     inkscape:window-height="1405"
     inkscape:window-x="642"
     inkscape:window-y="29"
     inkscape:window-maximized="0">
    <inkscape:grid
       type="xygrid"
       id="grid815"
       units="mm"
       spacingx="10"
       spacingy="10"
       empspacing="4"
       dotted="false" />
  </sodipodi:namedview>
  <metadata
     id="metadata5">
    <rdf:RDF>
      <cc:Work
         rdf:about="">
        <dc:format>image/svg+xml</dc:format>
        <dc:type
           rdf:resource="http://purl.org/dc/dcmitype/StillImage" />
        <dc:title></dc:title>
      </cc:Work>
    </rdf:RDF>
  </metadata>
  <g
     inkscape:label="Layer 1"
     inkscape:groupmode="layer"
     id="layer1"
     transform="translate(0,-177)">
    <path
       style="fill:#0075ff;fill-opacity:0.49735454;stroke:#007cfb;stroke-width:0.26458332px;stroke-linecap:butt;stroke-linejoin:miter;stroke-opacity:1"
       d="m 78.674393,238.01569 c 2.287307,0.74567 6.909229,2.25245 11.529518,4.50778 4.620289,2.25533 9.392369,5.3317 14.443519,7.6111 5.05115,2.27941 10.93072,3.93513 16.08223,4.53248 5.1515,0.59734 9.79185,0.22865 14.30739,-0.7302 4.51554,-0.95885 8.88977,-2.54653 13.28865,-4.33881 4.39888,-1.79228 9.08882,-3.88825 12.42247,-6.48656 3.33364,-2.59831 6.23214,-7.32405 5.7906,-9.21625 -0.44154,-1.89219 -6.58016,-5.92872 -10.62228,-6.90306 -4.04212,-0.97434 -9.57753,-1.07362 -14.6541,-1.50621 -5.07657,-0.43259 -11.3755,-1.38151 -16.56211,-2.37421 -5.18661,-0.9927 -9.98615,-2.12271 -16.37869,-2.37303 -6.39254,-0.25032 -13.910112,0.46007 -19.736823,1.99196 -5.826711,1.53189 -9.620889,3.82335 -11.608117,6.45513 -1.987228,2.63177 -1.758837,8.19844 -1.745439,8.52499 0,0 0.819367,0.23222 0.819367,0.23222 0,0 0.336508,-0.67301 2.623815,0.0727 z"
       id="path816"
       inkscape:connector-curvature="0"
       inkscape:path-effect="#path-effect818;#path-effect820"
       inkscape:original-d="m 76.387086,237.27001 c 3.760308,0.83862 7.517969,1.67989 11.272985,2.5238 2.189941,1.73597 4.377235,3.47459 6.561887,5.21586 0.507404,0.22169 1.012166,0.44603 1.514279,0.67301 2.077773,1.45555 4.1529,2.91375 6.225383,4.37459 0.78783,0.27778 1.57301,0.5582 2.35555,0.84127 0.67565,0.50212 1.34867,1.00688 2.01904,1.51428 2.91904,1.06296 5.83543,2.12857 8.74918,3.19682 1.40476,-0.003 2.80687,-0.003 4.20634,0 3.31163,0.0534 6.62061,0.10952 9.92695,0.16825 1.68518,-0.33915 3.36772,-0.67566 5.04761,-1.00952 1.40476,-0.33915 2.80687,-0.67566 4.20634,-1.00952 0.78782,-0.1709 1.57301,-0.33915 2.35554,-0.50476 0.9,-0.33915 1.79736,-0.67566 2.69206,-1.00952 1.51693,-0.78783 3.03121,-1.57301 4.54285,-2.35555 2.13385,-0.45132 4.26506,-0.9 6.39363,-1.34603 3.76031,-2.41428 7.51797,-4.82591 11.27298,-7.2349 1.01217,-2.97512 2.02169,-5.9476 3.02856,-8.91743 -3.58676,-2.07778 -7.17617,-4.1529 -10.76822,-6.22538 -4.5402,-0.28307 -9.08304,-0.56349 -13.62853,-0.84127 -1.00688,0.16561 -2.0164,0.33386 -3.02856,0.50476 -0.33387,0.22169 -0.67037,0.44603 -1.00953,0.67301 -3.082,-0.003 -6.16664,-0.003 -9.25394,0 -1.11904,-0.56349 -2.24073,-1.12433 -3.36507,-1.68253 -3.41851,-1.6291 -6.83966,-3.25555 -10.26346,-4.87935 -5.2693,-0.11482 -10.54124,-0.22699 -15.81583,-0.33651 -1.51164,-0.003 -3.025918,-0.003 -4.542845,0 -2.016395,0.33386 -4.035436,0.67037 -6.057125,1.00952 -3.362423,1.00688 -6.727494,2.0164 -10.095209,3.02856 -0.333861,0.2217 -0.670369,0.44604 -1.009523,0.67302 -3.362422,3.13808 -6.727491,6.27882 -10.095208,9.4222 -0.109522,0.78253 -0.221692,1.56772 -0.336508,2.35554 2.189943,0.61429 4.377238,1.23122 6.561886,1.85079 0.114816,-0.22698 0.226986,-0.45132 0.336508,-0.67301 z"
       transform="translate(54.029287,12.64788)" />
    <path
       style="fill:#ff0000;fill-opacity:0.60846564;stroke:#ff0001;stroke-width:0.26458332px;stroke-linecap:butt;stroke-linejoin:miter;stroke-opacity:1"
       d="m 77.780922,237.98556 c 2.66853,1.17919 7.708607,2.52517 13.087192,5.05133 5.378584,2.52616 11.590736,6.39537 18.168176,8.65796 6.57744,2.26259 14.35286,3.08183 21.10018,2.45874 6.74732,-0.62308 13.32702,-2.67202 18.68621,-4.75252 5.35919,-2.0805 10.12176,-4.43123 12.91769,-6.86516 2.79593,-2.43394 5.59204,-10.2267 3.80333,-12.07176 -1.78871,-1.84507 -5.27059,-4.64223 -8.34472,-7.50558 -3.07413,-2.86336 -7.97926,-8.64448 -9.15961,-7.04897 -1.18035,1.59551 -6.73799,9.10789 -7.13651,6.78464 -0.39852,-2.32324 -1.32623,-7.73148 -3.41663,-10.1716 -2.09041,-2.44011 -4.59234,-3.04752 -7.51859,-1.14655 -2.92625,1.90098 -9.49814,10.7511 -9.31945,8.3353 0.17868,-2.41579 0.85774,-11.5965 -1.83464,-11.87246 -2.69238,-0.27596 -8.68375,0.58609 -11.42046,0.97985 -2.73671,0.39376 -6.73367,-7.08202 -8.186545,-10.87388 -1.452876,-3.79185 -3.786147,-13.06409 -5.473965,-9.70238 -1.687818,3.36171 -5.146389,10.25031 -7.691665,16.7468 -2.545275,6.49648 -4.412476,13.19639 -6.241623,17.98929 -1.829147,4.7929 -4.587893,9.68304 -4.895172,11.22003 -0.30728,1.53698 0.208271,2.60774 2.876802,3.78692 z"
       id="path816-7"
       inkscape:connector-curvature="0"
       inkscape:path-effect="#path-effect818;#path-effect820"
       inkscape:original-d="m 75.627943,237.87714 c 4.012853,0.63893 8.023562,1.27782 12.032128,1.91667 2.189941,1.73597 4.370076,3.47318 6.561887,5.21586 1.420249,0.86047 2.833716,1.71726 4.250662,2.57658 1.16353,0.8236 2.32653,1.64727 3.489,2.47102 0.78783,0.27778 1.57301,0.5582 2.35555,0.84127 0.67565,0.50212 1.34867,1.00688 2.01904,1.51428 2.91904,1.06296 5.83543,2.12857 8.74918,3.19682 1.40476,-0.003 2.80687,-0.003 4.20634,0 3.31163,0.0534 6.62061,0.10952 9.92695,0.16825 1.68518,-0.33915 3.36772,-0.67566 5.04761,-1.00952 1.40476,-0.33915 2.80687,-0.67566 4.20634,-1.00952 0.78782,-0.1709 1.57301,-0.33915 2.35554,-0.50476 0.9,-0.33915 1.79736,-0.67566 2.69206,-1.00952 1.51693,-0.78783 3.03121,-1.57301 4.54285,-2.35555 2.13385,-0.45132 4.26506,-0.9 6.39363,-1.34603 3.76031,-2.41428 7.51797,-4.82591 11.27298,-7.2349 1.01217,-2.97512 2.02169,-5.9476 3.02856,-8.91743 -3.19588,-1.90674 -6.3927,-3.81361 -9.59045,-5.72062 -3.14112,-4.37577 -6.27966,-8.7473 -9.42219,-13.12377 -2.80533,4.09591 -5.60069,8.17713 -8.41267,12.2825 -0.16844,-4.33031 -0.33487,-8.602 -0.50477,-12.95552 -2.6007,-2.60123 -5.15751,-5.15804 -7.73966,-7.73966 -4.20933,5.66865 -8.40882,11.32397 -12.61901,16.9936 0.72999,-5.05217 1.45825,-10.09397 2.1873,-15.14281 -2.8048,-0.56128 -5.60695,-1.12171 -8.41268,-1.68254 -4.26404,1.73912 -8.51788,3.47424 -12.78726,5.21586 -1.909609,-8.7632 -3.810931,-17.48691 -5.720622,-26.24754 -3.369311,6.51425 -6.727036,13.00585 -10.095209,19.5174 -1.908217,6.84781 -3.81488,13.68937 -5.720621,20.52693 -1.460163,2.22671 -2.921663,4.45532 -4.384495,6.68582 2.65e-4,-2.7e-4 0,0 0,0 l -1.454621,3.66456 c 0,0 1.031124,2.14075 1.546651,3.21227 z"
       transform="translate(54.451922,12.713757)"
       sodipodi:nodetypes="cccccccccccccccccccccccccccccccccc" />
    <path
       style="fill:#0075ff;fill-opacity:0.49735454;stroke:#007cfb;stroke-width:0.26458332px;stroke-linecap:butt;stroke-linejoin:miter;stroke-opacity:1"
       d="m 78.674393,238.01569 c 2.287307,0.74567 6.909229,2.25245 11.529518,4.50778 4.620289,2.25533 9.392369,5.3317 14.443519,7.6111 5.05115,2.27941 10.93072,3.93513 16.08223,4.53248 5.1515,0.59734 9.79185,0.22865 14.30739,-0.7302 4.51554,-0.95885 8.88977,-2.54653 13.28865,-4.33881 4.39888,-1.79228 9.08882,-3.88825 12.42247,-6.48656 3.33364,-2.59831 6.23214,-7.32405 5.7906,-9.21625 -0.44154,-1.89219 -6.58016,-5.92872 -10.62228,-6.90306 -4.04212,-0.97434 -9.57753,-1.07362 -14.6541,-1.50621 -5.07657,-0.43259 -11.3755,-1.38151 -16.56211,-2.37421 -5.18661,-0.9927 -9.98615,-2.12271 -16.37869,-2.37303 -6.39254,-0.25032 -13.910112,0.46007 -19.736823,1.99196 -5.826711,1.53189 -9.620889,3.82335 -11.608117,6.45513 -1.987228,2.63177 -1.758837,8.19844 -1.745439,8.52499 0,0 0.819367,0.23222 0.819367,0.23222 0,0 0.336508,-0.67301 2.623815,0.0727 z"
       id="path816-5"
       inkscape:connector-curvature="0"
       inkscape:path-effect="#path-effect818;#path-effect820"
       inkscape:original-d="m 76.387086,237.27001 c 3.760308,0.83862 7.517969,1.67989 11.272985,2.5238 2.189941,1.73597 4.377235,3.47459 6.561887,5.21586 0.507404,0.22169 1.012166,0.44603 1.514279,0.67301 2.077773,1.45555 4.1529,2.91375 6.225383,4.37459 0.78783,0.27778 1.57301,0.5582 2.35555,0.84127 0.67565,0.50212 1.34867,1.00688 2.01904,1.51428 2.91904,1.06296 5.83543,2.12857 8.74918,3.19682 1.40476,-0.003 2.80687,-0.003 4.20634,0 3.31163,0.0534 6.62061,0.10952 9.92695,0.16825 1.68518,-0.33915 3.36772,-0.67566 5.04761,-1.00952 1.40476,-0.33915 2.80687,-0.67566 4.20634,-1.00952 0.78782,-0.1709 1.57301,-0.33915 2.35554,-0.50476 0.9,-0.33915 1.79736,-0.67566 2.69206,-1.00952 1.51693,-0.78783 3.03121,-1.57301 4.54285,-2.35555 2.13385,-0.45132 4.26506,-0.9 6.39363,-1.34603 3.76031,-2.41428 7.51797,-4.82591 11.27298,-7.2349 1.01217,-2.97512 2.02169,-5.9476 3.02856,-8.91743 -3.58676,-2.07778 -7.17617,-4.1529 -10.76822,-6.22538 -4.5402,-0.28307 -9.08304,-0.56349 -13.62853,-0.84127 -1.00688,0.16561 -2.0164,0.33386 -3.02856,0.50476 -0.33387,0.22169 -0.67037,0.44603 -1.00953,0.67301 -3.082,-0.003 -6.16664,-0.003 -9.25394,0 -1.11904,-0.56349 -2.24073,-1.12433 -3.36507,-1.68253 -3.41851,-1.6291 -6.83966,-3.25555 -10.26346,-4.87935 -5.2693,-0.11482 -10.54124,-0.22699 -15.81583,-0.33651 -1.51164,-0.003 -3.025918,-0.003 -4.542845,0 -2.016395,0.33386 -4.035436,0.67037 -6.057125,1.00952 -3.362423,1.00688 -6.727494,2.0164 -10.095209,3.02856 -0.333861,0.2217 -0.670369,0.44604 -1.009523,0.67302 -3.362422,3.13808 -6.727491,6.27882 -10.095208,9.4222 -0.109522,0.78253 -0.221692,1.56772 -0.336508,2.35554 2.189943,0.61429 4.377238,1.23122 6.561886,1.85079 0.114816,-0.22698 0.226986,-0.45132 0.336508,-0.67301 z"
       transform="translate(-60.531498,10.769241)" />
    <path
       style="fill:none;fill-opacity:0.60846564;stroke:#ff0001;stroke-width:0.26458332px;stroke-linecap:butt;stroke-linejoin:miter;stroke-opacity:1"
       d="m 78.786283,236.15884 c 1.663169,3.00591 6.703246,4.35189 12.081831,6.87805 5.378584,2.52616 11.590736,6.39537 18.168176,8.65796 6.57744,2.26259 14.35286,3.08183 21.10018,2.45874 6.74732,-0.62308 13.32702,-2.67202 18.68621,-4.75252 5.35919,-2.0805 10.12176,-4.43123 12.91769,-6.86516 2.79593,-2.43394 5.59204,-10.2267 3.80333,-12.07176 -1.78871,-1.84507 -5.27059,-4.64223 -8.34472,-7.50558 -3.07413,-2.86336 -7.97926,-8.64448 -9.15961,-7.04897 -1.18035,1.59551 -6.73799,9.10789 -7.13651,6.78464 -0.39852,-2.32324 -1.32623,-7.73148 -3.41663,-10.1716 -2.09041,-2.44011 -4.59234,-3.04752 -7.51859,-1.14655 -2.92625,1.90098 -9.49814,10.7511 -9.31945,8.3353 0.17868,-2.41579 0.85774,-11.5965 -1.83464,-11.87246 -2.69238,-0.27596 -8.68375,0.58609 -11.42046,0.97985 -2.73671,0.39376 -6.73367,-7.08202 -8.186545,-10.87388 -1.452876,-3.79185 -3.786147,-13.06409 -5.473965,-9.70238 -1.687818,3.36171 -5.146389,10.25031 -7.691665,16.7468 -2.545275,6.49648 -4.470339,13.40402 -6.053472,18.75976 -1.583133,5.35573 -2.864329,9.40386 -1.20116,12.40976 z"
       id="path816-7-9"
       inkscape:connector-curvature="0"
       inkscape:path-effect="#path-effect818;#path-effect820"
       inkscape:original-d="m 75.627943,237.87714 c 4.012853,0.63893 8.023562,1.27782 12.032128,1.91667 2.189941,1.73597 4.370076,3.47318 6.561887,5.21586 1.420249,0.86047 2.833716,1.71726 4.250662,2.57658 1.16353,0.8236 2.32653,1.64727 3.489,2.47102 0.78783,0.27778 1.57301,0.5582 2.35555,0.84127 0.67565,0.50212 1.34867,1.00688 2.01904,1.51428 2.91904,1.06296 5.83543,2.12857 8.74918,3.19682 1.40476,-0.003 2.80687,-0.003 4.20634,0 3.31163,0.0534 6.62061,0.10952 9.92695,0.16825 1.68518,-0.33915 3.36772,-0.67566 5.04761,-1.00952 1.40476,-0.33915 2.80687,-0.67566 4.20634,-1.00952 0.78782,-0.1709 1.57301,-0.33915 2.35554,-0.50476 0.9,-0.33915 1.79736,-0.67566 2.69206,-1.00952 1.51693,-0.78783 3.03121,-1.57301 4.54285,-2.35555 2.13385,-0.45132 4.26506,-0.9 6.39363,-1.34603 3.76031,-2.41428 7.51797,-4.82591 11.27298,-7.2349 1.01217,-2.97512 2.02169,-5.9476 3.02856,-8.91743 -3.19588,-1.90674 -6.3927,-3.81361 -9.59045,-5.72062 -3.14112,-4.37577 -6.27966,-8.7473 -9.42219,-13.12377 -2.80533,4.09591 -5.60069,8.17713 -8.41267,12.2825 -0.16844,-4.33031 -0.33487,-8.602 -0.50477,-12.95552 -2.6007,-2.60123 -5.15751,-5.15804 -7.73966,-7.73966 -4.20933,5.66865 -8.40882,11.32397 -12.61901,16.9936 0.72999,-5.05217 1.45825,-10.09397 2.1873,-15.14281 -2.8048,-0.56128 -5.60695,-1.12171 -8.41268,-1.68254 -4.26404,1.73912 -8.51788,3.47424 -12.78726,5.21586 -1.909609,-8.7632 -3.810931,-17.48691 -5.720622,-26.24754 -3.369311,6.51425 -6.727036,13.00585 -10.095209,19.5174 -1.908217,6.84781 -3.81488,13.68937 -5.720621,20.52693 -1.460163,2.22671 -2.921663,4.45532 -4.384495,6.68582 2.65e-4,-2.7e-4 0,0 0,0 v 0 c 0,0 0.0616,4.58322 0.09203,6.87683 z"
       transform="translate(-61.856442,11.051051)"
       sodipodi:nodetypes="cccccccccccccccccccccccccccccccccc" />
    <path
       style="opacity:1;fill:#000000;fill-opacity:0.60846564;fill-rule:nonzero;stroke:#000001;stroke-width:0.138;stroke-linecap:butt;stroke-linejoin:miter;stroke-miterlimit:4;stroke-dasharray:none;stroke-dashoffset:0;stroke-opacity:1;marker-start:none;marker-end:none;paint-order:normal"
       id="path929"
       d="m 44.062533,212.68253 c -0.0024,0.78015 -0.07762,1.55815 -0.122425,2.33672 0.01093,0.3864 -0.08401,0.78438 -0.02588,1.16895 0.05783,0.22949 0.154702,0.44667 0.293553,0.63806 0.166135,0.2316 0.418097,0.27933 0.684054,0.31017 0.204774,0.0166 0.425312,0.003 0.615902,-0.0821 0.04779,-0.0213 0.185571,-0.0963 0.137607,-0.0754 -0.05748,0.025 -0.110839,0.0586 -0.166259,0.0879 0.247452,-0.17079 0.444027,-0.38911 0.601925,-0.6428 0.143388,-0.25414 0.183028,-0.53282 0.201472,-0.81881 0.06366,-0.4033 0.115483,-0.80772 0.146939,-1.21481 -0.0028,-0.27231 0.06231,-0.55558 0.01,-0.82532 -0.02437,-0.0596 -0.03339,-0.14714 -0.09677,-0.18306 -0.02453,-0.0139 -0.111292,0.0123 -0.08446,0.004 0.06534,-0.021 0.131267,-0.0401 0.1969,-0.0601 -0.200554,0.3312 -0.192305,0.73397 -0.205118,1.10893 -0.01019,0.54908 -0.0055,1.09832 -0.0037,1.64745 -0.01013,0.4519 -0.02312,0.88946 0.125241,1.31992 0.06989,0.11043 0.10119,0.2784 0.209751,0.36412 0.07174,0.0566 0.143698,-0.0104 0.129524,-0.007 -0.07731,0.0173 -0.151984,0.0447 -0.227978,0.0671 0,0 0.30548,-0.13665 0.30548,-0.13665 v 0 c -0.48931,0.39176 -0.454451,0.39553 -0.709004,-0.12593 -0.150159,-0.43431 -0.141502,-0.87405 -0.128802,-1.33043 -0.0019,-0.54939 -0.0066,-1.09887 0.0026,-1.64822 0.0117,-0.3812 0.0047,-0.78598 0.194006,-1.12901 0.300429,-0.21314 0.462939,-0.43189 0.587705,-0.0485 0.05848,0.27166 -0.01109,0.55918 -0.0071,0.83432 -0.03091,0.40684 -0.08063,0.81142 -0.146698,1.2141 -0.01646,0.29018 -0.05371,0.57324 -0.194323,0.83341 -0.154432,0.25879 -0.349772,0.48008 -0.59604,0.65663 -0.381556,0.22822 -0.710073,0.44966 -1.171488,0.38411 -0.273976,-0.0354 -0.529474,-0.0948 -0.699027,-0.33322 -0.141303,-0.19609 -0.241694,-0.41703 -0.301595,-0.6515 -0.06442,-0.38632 0.03843,-0.78832 0.0259,-1.17705 0.04559,-0.77759 0.12223,-1.55482 0.121433,-2.33406 0,0 0.296744,-0.1512 0.296744,-0.1512 z"
       inkscape:connector-curvature="0" />
    <path
       style="opacity:1;fill:#000000;fill-opacity:0.60846564;fill-rule:nonzero;stroke:#000001;stroke-width:0.138;stroke-linecap:butt;stroke-linejoin:miter;stroke-miterlimit:4;stroke-dasharray:none;stroke-dashoffset:0;stroke-opacity:1;marker-start:none;marker-end:none;paint-order:normal"
       id="path953"
       d="m 74.556773,250.48551 c 0.740515,0.0434 1.476647,0.11873 2.213006,0.20629 0.41946,0.052 0.851998,0.10768 1.252215,0.25071 -0.04436,0.004 0.357312,0.15977 0.327837,0.17102 -0.104703,0.04 -0.215439,0.0619 -0.323162,0.0928 -0.05843,-0.15355 -0.08182,-0.31777 -0.1011,-0.48016 -0.01169,-0.1004 -0.07325,-0.18723 -0.105481,-0.28433 -0.0466,-0.15319 -0.05958,-0.31359 -0.06566,-0.47275 -0.01347,-0.16954 -0.159723,-0.23991 -0.238164,-0.37373 -0.07786,-0.12124 -0.07578,-0.26466 -0.116996,-0.39653 -0.06865,-0.13407 -0.106244,-0.27798 -0.133239,-0.42517 -0.0342,-0.16185 0.04071,-0.31953 0.07973,-0.47488 0.04988,-0.1959 0.05953,-0.39856 0.067,-0.59965 0.0044,-0.13006 0.0038,-0.2602 0.0035,-0.39031 -0.02085,-0.15641 0.03628,-0.26619 0.119494,-0.39467 0.101457,-0.16694 0.216773,-0.32272 0.363405,-0.45216 0.261554,-0.20258 0.537078,-0.39113 0.855591,-0.48942 0.180935,-0.088 0.366294,-0.15577 0.563589,-0.19478 0.161515,-0.0253 0.305856,-0.0964 0.467312,-0.1313 0.220509,-0.0672 0.370854,-0.008 0.55362,0.11713 0.258765,0.14398 0.507534,0.30606 0.767254,0.4489 0.243682,0.12024 0.494128,0.2312 0.755177,0.3085 0.200464,0.0512 0.396827,0.12908 0.563967,0.2518 0.154205,0.17764 0.167545,0.4325 0.147016,0.65672 -0.03998,0.29244 -0.132284,0.56654 -0.291743,0.81445 -0.134766,0.23353 -0.316341,0.43696 -0.427908,0.68302 -0.05632,0.18566 -0.114398,0.36877 -0.21934,0.5336 -0.181072,0.19314 -0.314298,0.42051 -0.453977,0.64332 -0.11784,0.18907 -0.291788,0.32643 -0.416277,0.51136 -0.102169,0.16047 -0.2081,0.32013 -0.318323,0.47563 -0.04062,0.0813 -0.340606,0.20026 -0.300529,0.28738 0.225348,0.0891 0.478462,0.0967 0.716954,0.14538 0.341818,0.0463 0.677564,0.10554 1.01259,0.18823 0.28988,0.10154 0.573709,0.21984 0.86677,0.31191 0.264535,0.0742 0.552256,0.0528 0.818866,-0.006 0,0 -0.267324,0.2025 -0.267324,0.2025 v 0 c -0.272436,0.0503 -0.559493,0.073 -0.827625,-0.009 -0.291912,-0.0938 -0.575378,-0.21133 -0.865706,-0.30997 -0.334555,-0.0825 -0.670882,-0.13773 -1.011623,-0.18721 -0.243412,-0.0489 -0.520049,-0.0429 -0.73505,-0.17099 -0.01066,-0.0228 -0.03704,-0.0438 -0.03199,-0.0685 0.02442,-0.11928 0.269443,-0.14147 0.317092,-0.25098 0.113192,-0.15304 0.215493,-0.31582 0.319437,-0.47432 0.120012,-0.19025 0.292341,-0.3258 0.416814,-0.51105 0.140618,-0.22177 0.26702,-0.45508 0.452723,-0.64404 0.11438,-0.15729 0.167407,-0.34408 0.222369,-0.52817 0.105823,-0.25099 0.290417,-0.45326 0.426053,-0.68843 0.163431,-0.24192 0.255985,-0.51067 0.298117,-0.7998 0.02519,-0.21028 0.0154,-0.45879 -0.13035,-0.62585 -0.165896,-0.1189 -0.360664,-0.19115 -0.557294,-0.24281 -0.261763,-0.0809 -0.514527,-0.19117 -0.758714,-0.31464 -0.259781,-0.14456 -0.510733,-0.30482 -0.76926,-0.45109 -0.180523,-0.11928 -0.325218,-0.16047 -0.538091,-0.0947 -0.15902,0.038 -0.305779,0.10949 -0.468109,0.13103 -0.195884,0.042 -0.378246,0.11687 -0.561181,0.19744 -0.09332,0.031 -0.457007,0.1729 -0.01215,-0.0353 0.329423,-0.1542 -0.602461,0.369 -0.268443,0.19411 -0.151106,0.12239 -0.265674,0.27771 -0.367078,0.44304 -0.08152,0.12568 -0.150833,0.22088 -0.1271,0.37683 5.29e-4,0.1306 5.29e-4,0.26124 -0.0035,0.39179 -0.0073,0.20295 -0.01527,0.40779 -0.0641,0.60585 -0.03644,0.15174 -0.113675,0.30511 -0.08549,0.46208 0.02564,0.14608 0.06194,0.28877 0.130876,0.42133 0.04275,0.129 0.03775,0.27039 0.113376,0.39013 0.08064,0.13713 0.233543,0.21194 0.245994,0.38833 0.0055,0.15618 0.01656,0.31379 0.06136,0.46439 0.03235,0.0997 0.09671,0.18783 0.109149,0.29012 0.01736,0.15937 0.03936,0.32058 0.09566,0.47143 -0.364008,0.3653 -0.18225,0.24248 -0.57355,0.088 -0.400278,-0.13654 -0.827384,-0.19703 -1.245593,-0.2465 -0.736518,-0.0883 -1.473088,-0.16216 -2.213914,-0.2045 0,0 0.27119,-0.1933 0.27119,-0.1933 z"
       inkscape:connector-curvature="0" />
    <path
       style="opacity:1;fill:#000000;fill-opacity:0.60846564;fill-rule:nonzero;stroke:#000001;stroke-width:0.138;stroke-linecap:butt;stroke-linejoin:miter;stroke-miterlimit:4;stroke-dasharray:none;stroke-dashoffset:0;stroke-opacity:1;marker-start:none;marker-end:none;paint-order:normal"
       id="path957"
       d="m 142.67969,228.98851 c -0.12892,-1.30047 -0.32251,-2.59336 -0.50935,-3.88647 -0.10313,-0.6023 -0.18449,-1.20857 -0.29019,-1.81043 -0.0554,-0.31552 -0.12983,-0.62003 -0.15323,-0.93967 0.0542,-0.21213 0.031,-0.25452 0.47801,-0.14177 0.0909,0.0229 0.13271,0.13272 0.19453,0.20323 0.27594,0.31476 0.51614,0.66275 0.76748,0.99684 0.61516,0.81179 1.22795,1.625 1.84355,2.43654 0.423,0.49934 0.76446,1.0877 1.30011,1.47857 0.0403,0.008 0.14357,-0.0105 0.12099,0.0238 -0.041,0.0623 -0.12816,0.1136 -0.20107,0.098 -0.047,-0.0101 0.0541,-0.0807 0.0696,-0.12614 0.0236,-0.0691 0.0358,-0.14173 0.0467,-0.21388 0.0418,-0.27647 0.0294,-0.33842 0.0277,-0.62673 -0.0601,-0.8186 -0.23389,-1.62136 -0.40214,-2.42271 -0.0604,-0.3356 -0.13969,-0.66733 -0.21546,-0.99966 -0.045,-0.19719 -0.10785,-0.37088 -0.0546,-0.56878 0.12881,-0.0595 0.24554,-0.16169 0.38644,-0.17851 0.0499,-0.006 0.34328,0.26749 0.40088,0.3218 0.36947,0.34839 0.69004,0.73686 1.01958,1.12232 0.7645,0.87846 1.44605,1.82438 2.16278,2.74133 0.24229,0.30758 0.49324,0.60821 0.74881,0.9048 0.10529,0.12219 0.24143,0.23756 0.28043,0.39889 0,0 -0.29569,0.15822 -0.29569,0.15822 v 0 c -0.0239,-0.1506 -0.17558,-0.27715 -0.26874,-0.38621 -0.25449,-0.29792 -0.50518,-0.59916 -0.74697,-0.90752 -0.71486,-0.91771 -1.39629,-1.8631 -2.16109,-2.7406 -0.32948,-0.38383 -0.64976,-0.77129 -1.02082,-1.11624 -0.0755,-0.0702 -0.15077,-0.14122 -0.23262,-0.20395 -0.0482,-0.0369 -0.163,-0.0336 -0.156,-0.0939 0.01,-0.0819 0.1239,-0.10872 0.18585,-0.16308 -0.12427,0.32761 0.24321,1.17315 0.25833,1.55508 0.16816,0.8034 0.34193,1.60789 0.40604,2.42805 0.005,0.40365 0.0621,1.35165 -0.64063,1.17403 -0.53263,-0.3996 -0.87842,-0.98484 -1.30132,-1.48892 -0.61461,-0.81236 -1.22774,-1.62531 -1.8437,-2.43656 -0.25098,-0.33269 -0.49098,-0.67969 -0.76795,-0.99185 -0.0612,-0.0689 -0.18132,-0.10671 -0.19282,-0.19815 -0.0129,-0.10281 0.0843,-0.18949 0.13254,-0.28117 0.0151,-0.0287 -0.0218,0.061 -0.0327,0.0915 0.0184,0.32018 0.0927,0.62352 0.14735,0.93934 0.1043,0.60259 0.18377,1.20962 0.28753,1.81232 0.18632,1.29316 0.37957,2.58579 0.51662,3.88534 0,0 -0.2948,0.15287 -0.2948,0.15287 z"
       inkscape:connector-curvature="0" />
    <path
       style="opacity:1;fill:#000000;fill-opacity:0.60846564;fill-rule:nonzero;stroke:#000001;stroke-width:0.138;stroke-linecap:butt;stroke-linejoin:miter;stroke-miterlimit:4;stroke-dasharray:none;stroke-dashoffset:0;stroke-opacity:1;marker-start:none;marker-end:none;paint-order:normal"
       id="path959"
       d="m 103.66017,226.82359 c 0.68982,-0.22788 1.36748,-0.4836 2.08334,-0.61527 1.48437,-0.14387 2.98077,-0.16764 4.4713,-0.21614 1.94153,-0.0961 3.88367,-0.17561 5.82695,-0.22523 1.11718,-0.0482 2.23757,0.002 3.35398,-0.0579 0.5293,-0.0406 1.05779,-0.0904 1.58722,-0.1294 0.0371,-0.0101 0.14141,-0.0544 0.11133,-0.0304 -0.062,0.0494 -0.13557,0.085 -0.21083,0.10973 -0.009,0.003 0.0516,-0.0308 0.0415,-0.12058 -0.0107,-0.0949 -0.0505,-0.16182 -0.0895,-0.24871 -0.21586,-0.47395 -0.51516,-0.88595 -0.88366,-1.25114 -0.12467,-0.10554 -0.25547,-0.24731 -0.4191,-0.2971 -0.0245,-0.007 -0.10148,0.003 -0.0767,-0.003 0.36587,-0.0939 0.26263,-0.13102 0.45163,0.0573 0.46914,0.3208 0.8897,0.50871 1.20203,1.00768 0.22318,0.60708 -0.11796,1.13388 -0.44967,1.62327 -0.44807,0.5664 -0.92525,1.11008 -1.40111,1.65343 0,0 -0.3057,0.12897 -0.3057,0.12897 v 0 c 0.47652,-0.54224 0.95203,-1.08657 1.4032,-1.64996 0.327,-0.47584 0.67706,-0.99211 0.46584,-1.58839 -0.30391,-0.48607 -0.7434,-0.68463 -1.19926,-1.00076 -0.18918,-0.19379 -0.21779,-0.13698 0.10631,-0.4258 0.0577,-0.0514 0.31232,0.15001 0.33441,0.16766 0.0598,0.0478 0.11427,0.10207 0.17141,0.1531 0.36984,0.36922 0.67197,0.78416 0.89133,1.26065 0.18148,0.39754 0.12028,0.53918 -0.41227,0.65249 -0.52852,0.0379 -1.05599,0.0881 -1.58446,0.12648 -1.11514,0.0546 -2.23366,0.008 -3.34942,0.0535 -1.94242,0.0481 -3.88364,0.12714 -5.82425,0.22356 -1.49219,0.0496 -2.99087,0.0733 -4.47618,0.22596 -0.71448,0.13648 -1.39306,0.39133 -2.08192,0.62101 0,0 0.26227,-0.2049 0.26227,-0.2049 z"
       inkscape:connector-curvature="0" />
    <path
       style="opacity:1;fill:#000000;fill-opacity:0.60846564;fill-rule:nonzero;stroke:#000001;stroke-width:0.138;stroke-linecap:butt;stroke-linejoin:miter;stroke-miterlimit:4;stroke-dasharray:none;stroke-dashoffset:0;stroke-opacity:1;marker-start:none;marker-end:none;paint-order:normal"
       id="path961"
       d="m 105.13273,222.09016 c -0.0516,-0.20907 -0.0129,0.01 0.29138,-0.40377 0.55,-0.74757 0.75695,-1.56233 0.9365,-2.45525 0.24782,-1.27339 0.0625,-2.57665 0.25441,-3.85209 0.11842,-0.31438 0.13136,-0.45961 0.38638,-0.69722 0.10794,-0.10056 0.23521,-0.18036 0.36551,-0.24951 0.71196,-0.3779 1.3033,-0.51543 2.07751,-0.67608 0.71545,-0.13976 1.4291,-0.28305 2.15888,-0.30672 0,0 -0.26698,0.19537 -0.26698,0.19537 v 0 c -0.72709,0.026 -1.43863,0.16807 -2.15141,0.3082 -1.43897,0.30394 0.06,-0.0298 -1.28861,0.3196 -0.0729,0.0189 -0.15433,0.007 -0.22244,0.0395 -0.40742,0.19229 -0.63689,0.4982 -0.76314,0.9218 -0.20075,1.27553 -0.0123,2.58064 -0.25782,3.85534 -0.17686,0.89706 -0.38192,1.71303 -0.9256,2.46868 -0.0906,0.12597 -0.18332,0.25385 -0.3005,0.35559 -0.1698,0.14744 -0.36894,0.25722 -0.55341,0.38583 0,0 0.25934,-0.20931 0.25934,-0.20931 z"
       inkscape:connector-curvature="0" />
    <path
       style="opacity:1;fill:#000000;fill-opacity:0.60846564;fill-rule:nonzero;stroke:#000001;stroke-width:0.138;stroke-linecap:butt;stroke-linejoin:miter;stroke-miterlimit:4;stroke-dasharray:none;stroke-dashoffset:0;stroke-opacity:1;marker-start:none;marker-end:none;paint-order:normal"
       id="path963"
       d="m 105.38552,218.81153 c 1.00674,-0.042 2.00583,-0.198 3.01282,-0.22991 0,0 -0.26693,0.19526 -0.26693,0.19526 v 0 c -1.00713,0.0335 -2.00669,0.18484 -3.0133,0.23209 0,0 0.26741,-0.19744 0.26741,-0.19744 z"
       inkscape:connector-curvature="0" />
    <path
       style="opacity:1;fill:#000000;fill-opacity:0.60846564;fill-rule:nonzero;stroke:#000001;stroke-width:0.138;stroke-linecap:butt;stroke-linejoin:miter;stroke-miterlimit:4;stroke-dasharray:none;stroke-dashoffset:0;stroke-opacity:1;marker-start:none;marker-end:none;paint-order:normal"
       id="path965"
       d="m 109.90136,222.24157 c -0.3245,0.49761 -0.67854,0.97239 -1.05322,1.43301 0,0 -0.3051,0.12999 -0.3051,0.12999 v 0 c 0.37557,-0.45876 0.73108,-0.93122 1.05315,-1.42948 0,0 0.30517,-0.13352 0.30517,-0.13352 z"
       inkscape:connector-curvature="0" />
    <path
       style="opacity:1;fill:#000000;fill-opacity:0.60846564;fill-rule:nonzero;stroke:#000001;stroke-width:0.138;stroke-linecap:butt;stroke-linejoin:miter;stroke-miterlimit:4;stroke-dasharray:none;stroke-dashoffset:0;stroke-opacity:1;marker-start:none;marker-end:none;paint-order:normal"
       id="path973"
       d="m 114.584,217.07353 c -0.47525,0.16159 -0.97761,0.3321 -1.38981,0.62934 -0.0104,0.008 0.0325,0.0189 0.025,0.0293 -0.0469,0.0649 -0.1128,0.11357 -0.16919,0.17036 -0.24083,0.36417 0.12183,0.61015 0.43717,0.73072 0.18816,0.0253 0.3829,0.0125 0.52806,-0.13265 0.02,-0.02 -0.0991,0.0339 -0.0844,0.01 0.0491,-0.0806 0.1372,-0.12985 0.20025,-0.20004 0.0626,-0.0696 0.11732,-0.14584 0.17598,-0.21877 0.27331,-0.37266 0.50235,-0.77494 0.75845,-1.15962 0.19298,-0.2746 0.0871,-0.27655 0.44905,-0.29015 -0.10109,0.66718 -0.19467,1.33677 -0.3104,2.00267 -0.19624,0.89403 -0.49559,1.76415 -1.01809,2.52001 -0.33434,0.39893 -0.87527,0.90854 -1.44815,0.80653 -0.0733,-0.013 -0.1404,-0.0496 -0.2106,-0.0744 -0.25989,-0.12961 -0.1379,-0.0558 -0.36706,-0.21965 0,0 0.2812,-0.17892 0.2812,-0.17892 v 0 c 0.22543,0.15827 0.10529,0.0871 0.36155,0.21165 0.53949,0.17286 0.74875,0.003 1.08002,-0.41343 0.52908,-0.7483 0.82676,-1.61688 1.02511,-2.50734 0.11586,-0.66687 0.21295,-1.33652 0.30304,-2.00655 0.64701,-0.48091 0.28716,-0.22456 0.16027,0.0157 -0.25812,0.38468 -0.48844,0.78707 -0.75903,1.16288 -0.28745,0.36553 -0.4326,0.48204 -0.85617,0.74907 -0.18242,0.11501 -0.33392,0.15647 -0.54623,0.10903 -0.33055,-0.13518 -0.70018,-0.40161 -0.4673,-0.78883 0.55644,-0.57946 1.35731,-0.90697 2.10502,-1.16033 0,0 -0.26376,0.20364 -0.26376,0.20364 z"
       inkscape:connector-curvature="0" />
  </g>
</svg>
