<?xml version="1.0" encoding="UTF-8" standalone="no"?>
<!-- Created with Inkscape (http://www.inkscape.org/) -->

<svg
   xmlns:osb="http://www.openswatchbook.org/uri/2009/osb"
   xmlns:dc="http://purl.org/dc/elements/1.1/"
   xmlns:cc="http://creativecommons.org/ns#"
   xmlns:rdf="http://www.w3.org/1999/02/22-rdf-syntax-ns#"
   xmlns:svg="http://www.w3.org/2000/svg"
   xmlns="http://www.w3.org/2000/svg"
   xmlns:xlink="http://www.w3.org/1999/xlink"
   xmlns:sodipodi="http://sodipodi.sourceforge.net/DTD/sodipodi-0.dtd"
   xmlns:inkscape="http://www.inkscape.org/namespaces/inkscape"
   width="240mm"
   height="120mm"
   viewBox="0 0 240 120"
   version="1.1"
   id="svg8"
   inkscape:version="0.92.5 (2060ec1f9f, 2020-04-08)"
   sodipodi:docname="gradient-flow.svg.2021_05_19_00_44_28.0.svg">
  <defs
     id="defs2">
    <linearGradient
       id="linearGradient6491"
       osb:paint="solid">
      <stop
         style="stop-color:#000000;stop-opacity:1;"
         offset="0"
         id="stop6489" />
    </linearGradient>
    <pattern
       inkscape:collect="always"
       xlink:href="#Ermine"
       id="pattern6474"
       patternTransform="matrix(0.18897638,0,0,0.18897638,-52.781254,-777.85175)" />
    <pattern
       inkscape:stockid="Ermine"
       patternUnits="userSpaceOnUse"
       width="783.093"
       height="797.156"
       patternTransform="translate(0,0) scale(0.05,0.05)"
       id="Ermine"
       inkscape:collect="always">
      <g
         id="g2575">
        <path
           style="fill:black;fill-opacity:1;fill-rule:evenodd;stroke:none;stroke-width:1;stroke-linecap:butt;stroke-linejoin:miter;stroke-miterlimit:4;stroke-opacity:1"
           d="M 566.875,361.31 C 529.023,361.31 498.281,392.05 498.281,429.90 C 498.281,467.75 529.023,498.46 566.875,498.46 C 604.726,498.46 635.437,467.75 635.437,429.90 C 635.437,392.05 604.726,361.31 566.875,361.31 z "
           id="path3042" />
        <path
           style="fill:black;fill-opacity:1;fill-rule:evenodd;stroke:none;stroke-width:1;stroke-linecap:butt;stroke-linejoin:miter;stroke-miterlimit:4;stroke-opacity:1"
           d="M 177.156,0.34 C 139.304,0.34 108.593,31.05 108.593,68.90 C 108.593,106.75 139.304,137.5 177.156,137.5 C 215.007,137.5 245.718,106.75 245.718,68.90 C 245.718,31.05 215.007,0.34 177.156,0.34 z "
           id="path3052" />
        <path
           style="opacity:0;fill:black;fill-opacity:1;fill-rule:evenodd;stroke:none;stroke-width:1;stroke-linecap:butt;stroke-linejoin:miter;stroke-miterlimit:4;stroke-opacity:1"
           d="M 783.093,117.93 C 780.736,124.86 779.437,132.27 779.437,140 C 779.437,147.71 780.739,155.13 783.093,162.06 L 783.093,117.93 z "
           id="path3050" />
        <path
           style="fill:black;fill-opacity:1;fill-rule:evenodd;stroke:none;stroke-width:1;stroke-linecap:butt;stroke-linejoin:miter;stroke-miterlimit:4;stroke-opacity:1"
           d="M 285.718,140.78 C 247.867,140.78 217.156,171.49 217.156,209.34 C 217.156,247.19 247.867,277.90 285.718,277.90 C 323.570,277.90 354.281,247.19 354.281,209.34 C 354.281,171.49 323.570,140.78 285.718,140.78 z "
           id="path3048" />
        <path
           style="fill:black;fill-opacity:1;fill-rule:evenodd;stroke:none;stroke-width:1;stroke-linecap:butt;stroke-linejoin:miter;stroke-miterlimit:4;stroke-opacity:1"
           d="M 161.375,165.06 C 144.552,433.12 73.284,537.85 28.593,722.31 L 126.687,653.71 L 180,722. L 233.312,653.65 L 325.687,722.21 C 273.529,536.18 207.547,433.42 192.75,165.06 L 161.375,165.06 z "
           id="path3044" />
        <path
           style="fill:black;fill-opacity:1;fill-rule:evenodd;stroke:none;stroke-width:1;stroke-linecap:butt;stroke-linejoin:miter;stroke-miterlimit:4;stroke-opacity:1"
           d="M 551.093,526.03 C 543.970,639.54 527.089,723.7 506.593,797.15 L 624,797.15 C 604.261,723.91 588.746,639.88 582.468,526.03 L 551.093,526.03 z "
           id="path3036" />
        <path
           style="fill:black;fill-opacity:1;fill-rule:evenodd;stroke:none;stroke-width:1;stroke-linecap:butt;stroke-linejoin:miter;stroke-miterlimit:4;stroke-opacity:1"
           d="M 675.437,501. C 637.586,501. 606.875,532.46 606.875,570.31 C 606.875,608.16 637.586,638.90 675.437,638.90 C 713.288,638.90 744.000,608.16 744,570.31 C 744,532.46 713.288,501. 675.437,501. z "
           id="path3040" />
        <path
           style="fill:black;fill-opacity:1;fill-rule:evenodd;stroke:none;stroke-width:1;stroke-linecap:butt;stroke-linejoin:miter;stroke-miterlimit:4;stroke-opacity:1"
           d="M 68.593,143.6 C 30.742,143.6 0,174.36 0,212.21 C 0,250.07 30.742,280.78 68.593,280.78 C 106.445,280.78 137.156,250.07 137.156,212.21 C 137.156,174.36 106.445,143.6 68.593,143.6 z "
           id="path3046" />
        <path
           style="fill:black;fill-opacity:1;fill-rule:evenodd;stroke:none;stroke-width:1;stroke-linecap:butt;stroke-linejoin:miter;stroke-miterlimit:4;stroke-opacity:1"
           d="M 507.406,0 C 479.357,101.33 444.335,181.71 418.312,289.1 L 516.406,220.53 L 569.718,289.09 L 623.031,220.5 L 715.406,289.03 C 685.074,180.8 650.084,100.80 623.187,0 L 507.406,0 z "
           id="path3054" />
        <path
           style="fill:black;fill-opacity:1;fill-rule:evenodd;stroke:none;stroke-width:1;stroke-linecap:butt;stroke-linejoin:miter;stroke-miterlimit:4;stroke-opacity:1"
           d="M 458.281,504.6 C 420.429,504.6 389.718,535.33 389.718,573.18 C 389.718,611.03 420.429,641. 458.281,641. C 496.132,641. 526.875,611.03 526.875,573.18 C 526.875,535.33 496.132,504.62 458.281,504.6 z "
           id="path3038" />
      </g>
    </pattern>
    <linearGradient
       id="linearGradient2722"
       osb:paint="solid">
      <stop
         style="stop-color:#0000c9;stop-opacity:1;"
         offset="0"
         id="stop2720" />
    </linearGradient>
    <marker
       inkscape:stockid="Arrow1Lstart"
       orient="auto"
       refY="0.0"
       refX="0.0"
       id="Arrow1Lstart"
       style="overflow:visible"
       inkscape:isstock="true">
      <path
         id="path852"
         d="M 0.0,0.0 L 5.0,-5.0 L -12.5,0.0 L 5.0,5.0 L 0.0,0.0 z "
         style="fill-rule:evenodd;stroke:#000000;stroke-width:1pt;stroke-opacity:1;fill:#000000;fill-opacity:1"
         transform="scale(0.8) translate(12.5,0)" />
    </marker>
    <marker
       inkscape:isstock="true"
       style="overflow:visible;"
       id="marker1148"
       refX="0.0"
       refY="0.0"
       orient="auto"
       inkscape:stockid="Arrow1Lend">
      <path
         transform="scale(0.8) rotate(180) translate(12.5,0)"
         style="fill-rule:evenodd;stroke:#000000;stroke-width:1pt;stroke-opacity:1;fill:#000000;fill-opacity:1"
         d="M 0.0,0.0 L 5.0,-5.0 L -12.5,0.0 L 5.0,5.0 L 0.0,0.0 z "
         id="path1146" />
    </marker>
    <marker
       inkscape:stockid="Arrow1Lend"
       orient="auto"
       refY="0.0"
       refX="0.0"
       id="Arrow1Lend"
       style="overflow:visible;"
       inkscape:isstock="true"
       inkscape:collect="always">
      <path
         id="path855"
         d="M 0.0,0.0 L 5.0,-5.0 L -12.5,0.0 L 5.0,5.0 L 0.0,0.0 z "
         style="fill-rule:evenodd;stroke:#000000;stroke-width:1pt;stroke-opacity:1;fill:#000000;fill-opacity:1"
         transform="scale(0.8) rotate(180) translate(12.5,0)" />
    </marker>
    <inkscape:path-effect
       effect="bspline"
       id="path-effect850"
       is_visible="true"
       weight="33.333333"
       steps="2"
       helper_size="0"
       apply_no_weight="true"
       apply_with_weight="true"
       only_selected="false" />
    <inkscape:path-effect
       effect="simplify"
       id="path-effect848"
       is_visible="true"
       steps="1"
       threshold="0.010382"
       smooth_angles="360"
       helper_size="0"
       simplify_individual_paths="false"
       simplify_just_coalesce="false"
       simplifyindividualpaths="false"
       simplifyJustCoalesce="false" />
    <inkscape:path-effect
       effect="bspline"
       id="path-effect844"
       is_visible="true"
       weight="33.333333"
       steps="2"
       helper_size="0"
       apply_no_weight="true"
       apply_with_weight="true"
       only_selected="false" />
    <inkscape:path-effect
       effect="simplify"
       id="path-effect842"
       is_visible="true"
       steps="1"
       threshold="0.010382"
       smooth_angles="360"
       helper_size="0"
       simplify_individual_paths="false"
       simplify_just_coalesce="false"
       simplifyindividualpaths="false"
       simplifyJustCoalesce="false" />
    <inkscape:path-effect
       effect="bspline"
       id="path-effect832"
       is_visible="true"
       weight="33.333333"
       steps="2"
       helper_size="0"
       apply_no_weight="true"
       apply_with_weight="true"
       only_selected="false" />
    <inkscape:path-effect
       effect="simplify"
       id="path-effect830"
       is_visible="true"
       steps="1"
       threshold="0.010382"
       smooth_angles="360"
       helper_size="0"
       simplify_individual_paths="false"
       simplify_just_coalesce="false"
       simplifyindividualpaths="false"
       simplifyJustCoalesce="false" />
    <pattern
       patternUnits="userSpaceOnUse"
       width="222.57155"
       height="180.60092"
       patternTransform="matrix(0.26458333,0,0,0.26458333,13.96504,205.80661)"
       id="pattern6471">
      <rect
         y="0"
         x="0"
         height="180.60092"
         width="222.57155"
         id="rect1270"
         style="opacity:1;fill:url(#pattern6474);fill-opacity:1;fill-rule:nonzero;stroke:none;stroke-width:1.00157475;stroke-linecap:butt;stroke-linejoin:miter;stroke-miterlimit:4;stroke-dasharray:none;stroke-dashoffset:0;stroke-opacity:1;marker-start:none;marker-end:none;paint-order:normal" />
    </pattern>
  </defs>
  <sodipodi:namedview
     id="base"
     pagecolor="#ffffff"
     bordercolor="#666666"
     borderopacity="1.0"
     inkscape:pageopacity="0.0"
     inkscape:pageshadow="2"
     inkscape:zoom="0.32773553"
     inkscape:cx="109.94127"
     inkscape:cy="183.77336"
     inkscape:document-units="mm"
     inkscape:current-layer="layer1"
     showgrid="false"
     showborder="true"
     width="200mm"
     showguides="true"
     inkscape:guide-bbox="true"
     inkscape:window-width="849"
     inkscape:window-height="1405"
     inkscape:window-x="856"
     inkscape:window-y="29"
     inkscape:window-maximized="0">
    <inkscape:grid
       type="xygrid"
       id="grid815"
       units="mm"
       spacingx="10"
       spacingy="10"
       empspacing="4"
       dotted="false" />
  </sodipodi:namedview>
  <metadata
     id="metadata5">
    <rdf:RDF>
      <cc:Work
         rdf:about="">
        <dc:format>image/svg+xml</dc:format>
        <dc:type
           rdf:resource="http://purl.org/dc/dcmitype/StillImage" />
        <dc:title />
      </cc:Work>
    </rdf:RDF>
  </metadata>
  <g
     inkscape:label="Layer 1"
     inkscape:groupmode="layer"
     id="layer1"
     transform="translate(0,-177)"
     style="opacity:1">
    <path
       style="fill:none;stroke:#000000;stroke-width:0.26458332px;stroke-linecap:butt;stroke-linejoin:miter;stroke-opacity:1;marker-start:url(#Arrow1Lstart)"
       d="m 68.983933,280.17465 c 7.234901,-13.90896 14.469798,-27.81791 21.704699,-41.72687"
       id="path828"
       inkscape:connector-curvature="0"
       inkscape:path-effect="#path-effect830;#path-effect832"
       inkscape:original-d="M 68.983933,280.17465 90.688632,238.44778" />
    <path
       style="fill:none;stroke:#000000;stroke-width:0.26458332px;stroke-linecap:butt;stroke-linejoin:miter;stroke-opacity:1;marker-end:url(#marker1148)"
       d="m 90.68863,238.44778 c 16.37667,0.22434 32.75335,0.44868 49.13002,0.67302"
       id="path840"
       inkscape:connector-curvature="0"
       inkscape:path-effect="#path-effect842;#path-effect844"
       inkscape:original-d="m 90.68863,238.44778 49.13002,0.67302" />
    <path
       style="fill:#000000;stroke:#000000;stroke-width:0.265;stroke-linecap:butt;stroke-linejoin:miter;stroke-opacity:1;stroke-miterlimit:4;stroke-dasharray:none;marker-end:url(#Arrow1Lend)"
       d="M 90.68863,238.44778 C 90.520378,222.23936 90.352126,206.03094 90.183874,189.82252"
       id="path846"
       inkscape:connector-curvature="0"
       inkscape:path-effect="#path-effect848;#path-effect850"
       inkscape:original-d="M 90.68863,238.44778 90.183874,189.82252" />
    <path
       style="opacity:1;fill:#800000;fill-opacity:0.50568183;fill-rule:nonzero;stroke:#ff0000;stroke-width:0.26499999;stroke-linecap:butt;stroke-linejoin:miter;stroke-miterlimit:4;stroke-dasharray:none;stroke-dashoffset:0;stroke-opacity:1;marker-start:none;marker-end:none;paint-order:normal"
       id="path1222"
       d="m 143.2776,232.614 c 0.13379,1.0861 0.21201,2.17751 0.26604,3.27013 0.0101,0.70005 -0.0267,1.39998 -0.0847,2.09742 0.005,0.0369 -0.003,0.41482 -0.17849,0.19571 -0.002,-0.003 -0.004,-0.4015 -0.004,-0.42357 -0.0614,-1.01207 -0.11399,-2.02425 -0.18377,-3.0358 -0.0462,-0.75032 -0.10606,-1.51684 0.0256,-2.26317 0.0641,-0.36345 0.12108,-0.46961 0.24748,-0.80335 0.32252,-0.61148 0.8051,-1.08015 1.51619,-1.16516 0.61163,0.0797 0.92792,0.63205 1.21328,1.11954 0.30489,0.58885 0.45071,1.02137 0.1393,1.63466 -0.41016,0.5506 -1.05577,0.82777 -1.65638,1.11961 -0.40591,0.23089 -0.73227,0.27728 -0.7354,0.80456 0.22376,0.64435 0.74347,1.13671 1.21639,1.60705 0.58345,0.5604 1.26177,1.00327 1.97082,1.38625 0.41133,0.2432 0.83148,0.44681 1.30096,0.54137 0.096,0.003 0.19733,0.0557 0.28989,0.0171 0,0 -0.13268,0.10291 -0.13268,0.10291 v 0 c -0.0981,0.0235 -0.19585,-0.0164 -0.29419,-0.0247 -0.46976,-0.0973 -0.89041,-0.30269 -1.30245,-0.54627 -0.70963,-0.38484 -1.38891,-0.82866 -1.97297,-1.39049 -0.47631,-0.47372 -0.99748,-0.96935 -1.22435,-1.61755 -5.3e-4,-0.0642 -0.0119,-0.12929 -0.002,-0.19269 0.074,-0.4558 0.69514,-0.56332 1.01515,-0.79097 0.5074,-0.24712 1.0318,-0.47647 1.37528,-0.94789 0.31778,-0.60616 0.17108,-1.0351 -0.13107,-1.62012 -0.28241,-0.48181 -0.59555,-1.03251 -1.20328,-1.10297 -0.11586,0.0155 -0.24231,-0.005 -0.3477,0.0454 -0.40231,0.19298 -0.68072,0.56894 -0.88534,0.95072 -0.12699,0.33099 -0.18534,0.43924 -0.25,0.79999 -0.1336,0.74527 -0.0739,1.51147 -0.0279,2.26094 0.0701,1.01146 0.12278,2.02355 0.18687,3.03538 5.3e-4,0.0833 8e-4,0.16664 0.002,0.24996 5.3e-4,0.0575 0.0248,0.11933 0.003,0.17245 -0.18376,0.44415 -0.14006,0.0411 -0.11974,-0.0445 0.0601,-0.69711 0.0975,-1.3969 0.0884,-2.09682 -0.0535,-1.09219 -0.13041,-2.1834 -0.26788,-3.26866 0,0 0.1475,-0.0766 0.1475,-0.0766 z"
       inkscape:connector-curvature="0" />
    <path
       style="opacity:1;fill:#800000;fill-opacity:0.50568183;fill-rule:nonzero;stroke:#ff0000;stroke-width:0.26499999;stroke-linecap:butt;stroke-linejoin:miter;stroke-miterlimit:4;stroke-dasharray:none;stroke-dashoffset:0;stroke-opacity:1;marker-start:none;marker-end:none;paint-order:normal"
       id="path1224"
       d="m 145.27681,229.75426 c -0.0147,1.16307 -0.0867,2.32487 -0.12319,3.48761 -0.0105,1.32274 -0.0903,2.643 -0.14723,3.96418 -0.0321,0.78577 -0.0534,1.57194 -0.0643,2.35828 -0.0186,0.28421 0.0964,0.31557 -0.17103,0.24365 0,0 0.14781,-0.0783 0.14781,-0.0783 v 0 c -0.22792,0.35365 -0.10047,0.13387 -0.12535,-0.0899 0.0127,-0.78697 0.0345,-1.57377 0.067,-2.36018 0.0572,-1.32115 0.13732,-2.64138 0.14752,-3.96411 0.0363,-1.16209 0.10862,-2.32332 0.12067,-3.48576 0,0 0.14809,-0.0755 0.14809,-0.0755 z"
       inkscape:connector-curvature="0" />
    <path
       style="opacity:1;fill:#800000;fill-opacity:0.50568183;fill-rule:nonzero;stroke:#ff0000;stroke-width:1.00157475;stroke-linecap:butt;stroke-linejoin:miter;stroke-miterlimit:4;stroke-dasharray:none;stroke-dashoffset:0;stroke-opacity:1;marker-start:none;marker-end:none;paint-order:normal"
       id="path1228"
       d="m 557.26967,195.57282 c -0.26813,3.51166 -0.39687,7.03182 -0.49117,10.5518 0.0354,1.03159 -0.10827,2.07181 -0.0603,3.1035 0.0258,0.55392 0.16682,0.60306 0.1635,0.60225 -0.14961,-0.0361 -0.26659,-0.15388 -0.39989,-0.23083 0.35295,-2.34257 0.25314,-4.72181 0.38909,-7.0814 0.077,-2.56475 0.8351,-5.04167 1.96279,-7.3296 1.18558,-2.02687 2.51785,-2.02969 4.28668,-0.80382 2.033,2.04884 3.11776,4.75974 3.98895,7.45901 0.48823,1.91423 1.38748,3.80861 1.49286,5.80418 -0.20812,0.93699 -1.10039,1.13915 -1.89196,1.50794 0,0 0.49735,-0.38878 0.49735,-0.38878 v 0 c 0.0454,0.35604 1.00731,-0.58122 0.83299,-0.82965 -0.0831,-1.99108 -1.00043,-3.88418 -1.47779,-5.79339 -0.86495,-2.68633 -1.94295,-5.38782 -3.97233,-7.42108 -0.56869,-0.38791 -0.82535,-0.65678 -1.50795,-0.78585 -0.22818,-0.0431 -0.46704,0.0289 -0.69665,-0.006 -0.0382,-0.006 -0.0125,-0.12599 -0.0459,-0.10653 -0.5454,0.3178 -0.60689,0.57467 -0.93331,1.1044 -1.13592,2.27786 -1.89948,4.74941 -1.97775,7.30879 -0.13725,2.363 -0.0394,4.74361 -0.37602,7.09168 -0.24,0.27297 -0.43246,0.59658 -0.72,0.81891 -0.0132,0.0102 -0.1521,-0.11556 -0.17648,-0.63527 -0.0485,-1.03272 0.10322,-2.07448 0.066,-3.10712 0.0967,-3.52003 0.227,-7.03998 0.48544,-10.5524 0,0 0.56187,-0.28087 0.56187,-0.28087 z"
       inkscape:connector-curvature="0"
       transform="matrix(0.26458333,0,0,0.26458333,0,177)" />
    <rect
       style="stroke:none;fill:#000088;fill-opacity:0.49206349"
       width="58.888721"
       height="47.783993"
       x="13.96504"
       y="205.80661"
       id="rect6476" />
  </g>
</svg>
